<svg width="19" height="15" viewBox="0 0 19 15" xmlns="http://www.w3.org/2000/svg" xmlns:xlink="http://www.w3.org/1999/xlink">
    <defs>
        <path id="ue17ylowna" d="M0 0h19v14.418H0z"/>
    </defs>
    <g fill="none" fill-rule="evenodd">
        <path d="M9.5 5.406c-.994 0-1.802.809-1.802 1.803 0 .994.808 1.802 1.802 1.802s1.802-.808 1.802-1.802-.808-1.803-1.802-1.803m0 5.407A3.608 3.608 0 0 1 5.895 7.21 3.608 3.608 0 0 1 9.5 3.604a3.608 3.608 0 0 1 3.605 3.605A3.608 3.608 0 0 1 9.5 10.813" fill="#609"/>
        <g>
            <mask id="6ixmk4dvzb" fill="#fff">
                <use xlink:href="#ue17ylowna"/>
            </mask>
            <path d="M1.85 7.209a8.076 8.076 0 0 0 7.65 5.407 8.074 8.074 0 0 0 7.65-5.407A8.074 8.074 0 0 0 9.5 1.802a8.076 8.076 0 0 0-7.65 5.407m7.65 7.21A9.872 9.872 0 0 1 .04 7.478a.907.907 0 0 1 0-.54A9.873 9.873 0 0 1 9.5-.002a9.87 9.87 0 0 1 9.458 6.94.887.887 0 0 1 0 .54 9.869 9.869 0 0 1-9.458 6.94" fill="#609" mask="url(#6ixmk4dvzb)"/>
        </g>
    </g>
</svg>
