<?xml version="1.0" encoding="UTF-8"?>
<svg width="67px" height="55px" viewBox="0 0 67 55" version="1.1" xmlns="http://www.w3.org/2000/svg" xmlns:xlink="http://www.w3.org/1999/xlink">
    <title>Logo_Psst</title>
    <defs>
        <polygon id="path-1" points="0 0 66.6346154 0 66.6346154 48.6538462 0 48.6538462"></polygon>
        <polygon id="path-3" points="0 0 66.6346154 0 66.6346154 48.6538462 0 48.6538462"></polygon>
    </defs>
    <g id="Symbols" stroke="none" stroke-width="1" fill="none" fill-rule="evenodd">
        <g id="Menu" transform="translate(-19.000000, -13.000000)">
            <g id="Logo_Psst" transform="translate(19.000000, 13.000000)">
                <g id="Group-3" transform="translate(0.000000, 6.346154)">
                    <mask id="mask-2" fill="white">
                        <use xlink:href="#path-1"></use>
                    </mask>
                    <g id="Clip-2"></g>
                    <path d="M48.1229741,0 L18.5115984,0 C8.94216654,0 1.04547078,1.83226838 0.0958423293,11.070557 C0.032562367,11.6863437 -4.29016693e-05,17.7113608 -4.29016693e-05,18.3435147 C-4.29016693e-05,28.4581887 8.30421872,36.6870293 18.5115984,36.6870293 L41.9513544,36.6870293 L54.0279599,48.6539524 L54.0279599,35.733272 C61.510869,33.245043 66.6346154,26.2637179 66.6346154,18.3435147 C66.6346154,17.7502593 66.6060858,11.6495708 66.5500991,11.070557 C65.6540977,1.77785298 57.731661,0 48.1229741,0" id="Fill-1" fill="#0A0540" mask="url(#mask-2)"></path>
                </g>
                <path d="M47.6045399,2.11538462 L17.9723832,2.11538462 C8.63064315,2.11538462 1.05769231,9.64109889 1.05769231,18.9245695 L1.05769231,18.9245695 C1.05769231,28.2080401 8.63064315,35.7337544 17.9723832,35.7337544 L42.0957489,35.7337544 L51.9039427,45.4807692 L51.9039427,35.1853088 C59.1632769,33.2948675 64.5192308,26.7316528 64.5192308,18.9245695 L64.5192308,18.9245695 C64.5192308,9.64109889 56.9462799,2.11538462 47.6045399,2.11538462" id="Fill-4" fill="#FFFFFF"></path>
                <g id="Group-8">
                    <mask id="mask-4" fill="white">
                        <use xlink:href="#path-3"></use>
                    </mask>
                    <g id="Clip-7"></g>
                    <path d="M18.5116139,3.18839508 C10.07865,3.18839508 3.21760271,9.98690364 3.21760271,18.3434746 C3.21760271,26.7000455 10.07865,33.4985541 18.5116139,33.4985541 L43.2841023,33.4985541 L50.8103397,40.9564227 L50.8103397,33.3157528 L52.0113716,33.0041403 C58.7269822,31.2603007 63.4169912,25.2316833 63.4169912,18.3434746 C63.4169912,9.98690364 56.555944,3.18839508 48.12298,3.18839508 L18.5116139,3.18839508 Z M54.0279639,48.6538462 L41.9513624,36.6869492 L18.5116139,36.6869492 C8.3042375,36.6869492 -2.14508278e-05,28.4581266 -2.14508278e-05,18.3434746 C-2.14508278e-05,8.22882259 8.3042375,0 18.5116139,0 L48.12298,0 C58.3303564,0 66.6346154,8.22882259 66.6346154,18.3434746 C66.6346154,26.2636605 61.5108707,33.2449704 54.0279639,35.7331939 L54.0279639,48.6538462 Z" id="Fill-6" fill="#1BD0FE" mask="url(#mask-4)"></path>
                </g>
                <path d="M19.354792,16.5295356 C19.6710808,16.2158544 19.8292253,15.7726046 19.8292253,15.1997861 C19.8292253,14.6271832 19.6710808,14.1841489 19.354792,13.8702522 C19.0385032,13.5567866 18.5571941,13.3998382 17.9114899,13.3998382 L16.0729309,13.3998382 L16.0729309,16.9999496 L17.9114899,16.9999496 C18.5571941,16.9999496 19.0385032,16.8434324 19.354792,16.5295356 M22.7156212,17.4807118 C22.3466175,18.1695169 21.779673,18.7253039 21.0154125,19.1478573 C20.2509437,19.5708418 19.3020772,19.7819029 18.1686048,19.7819029 L16.0729309,19.7819029 L16.0729309,23.6355463 C16.0729309,24.6015982 15.3161714,25.3846154 14.3827235,25.3846154 L14.3827235,25.3846154 C13.4490672,25.3846154 12.6923077,24.6015982 12.6923077,23.6355463 L12.6923077,11.936855 C12.6923077,11.1857448 13.2809216,10.5769231 14.006844,10.5769231 L18.1686048,10.5769231 C19.2756156,10.5769231 20.2113555,10.7746177 20.9760327,11.1700069 C21.7402931,11.5658273 22.3134885,12.1110504 22.6958271,12.8065388 C23.0779573,13.5020271 23.2692308,14.2999199 23.2692308,15.1997861 C23.2692308,16.0319575 23.0846248,16.7923379 22.7156212,17.4807118" id="Fill-9" fill="#660099"></path>
                <path d="M26.5582389,24.8778988 C25.7804499,24.5403725 25.1662016,24.0772352 24.7159254,23.489555 C24.7113946,23.4835735 24.7068638,23.4775921 24.702333,23.4718242 C24.0915367,22.6656064 24.6908981,21.5131038 25.7090357,21.5131038 L26.5547868,21.5131038 C26.9882343,21.5131038 27.3854352,21.7378365 27.6197428,22.0988614 C27.708633,22.2357945 27.825571,22.3582012 27.9707727,22.4658678 C28.2982855,22.7089721 28.7006645,22.8307379 29.178557,22.8307379 C29.6152408,22.8307379 29.9531097,22.7463564 30.1919481,22.5773796 C30.4305707,22.4086165 30.5500978,22.1890108 30.5500978,21.9185626 C30.5500978,21.594281 30.3794373,21.3545947 30.0383321,21.1990762 C29.6972269,21.0437714 29.1444681,20.8715903 28.3802716,20.6821056 C27.5612738,20.4930482 26.8788476,20.2937368 26.3329929,20.0841715 C25.7871383,19.8748197 25.3161498,19.5439158 24.9206749,19.0910325 C24.5245527,18.6383628 24.3269231,18.0267567 24.3269231,17.2566414 C24.3269231,16.6078647 24.5075082,16.0169801 24.8693257,15.4829196 C25.2309274,14.9492863 25.7629739,14.5271649 26.4661124,14.216128 C27.1688194,13.9055184 28.0046459,13.75 28.9738076,13.75 C30.4068379,13.75 31.5360883,14.1014118 32.3619901,14.8040219 C32.6707324,15.0669933 32.9304988,15.3620083 33.1410736,15.6892806 C33.6735516,16.5170744 33.0716012,17.6012173 32.0804327,17.6012173 L31.4072838,17.6012173 C30.9669323,17.6012173 30.5714573,17.3645216 30.332619,16.9983697 C30.2519274,16.8744677 30.1503078,16.7646649 30.0281917,16.6687476 C29.7345521,16.4391016 29.3490018,16.3241717 28.8715408,16.3241717 C28.4620419,16.3241717 28.1481215,16.4021446 27.9297796,16.5572358 C27.7114378,16.7127542 27.6022668,16.9255239 27.6022668,17.1957585 C27.6022668,17.5200401 27.7763794,17.763358 28.1243887,17.9254988 C28.472398,18.0876396 29.0148006,18.2497804 29.7518123,18.4119211 C30.5977792,18.6283225 31.2871095,18.8410922 31.8193717,19.0504439 C32.351634,19.2600093 32.8189546,19.5977491 33.2217651,20.0638772 C33.6241442,20.5302188 33.8323457,21.1552833 33.8461538,21.9388569 C33.8461538,22.6010919 33.6582331,23.1924037 33.283039,23.7123651 C32.907629,24.2327536 32.3686784,24.6416304 31.6659715,24.9387817 C30.962833,25.2357193 30.147503,25.3846154 29.2195501,25.3846154 C28.2232035,25.3846154 27.3362436,25.2158523 26.5582389,24.8778988" id="Fill-11" fill="#660099"></path>
                <path d="M37.135162,24.8778988 C36.357373,24.5403725 35.7431247,24.0772352 35.2928485,23.489555 C35.2883177,23.4835735 35.2837869,23.4775921 35.2792561,23.4718242 C34.6684598,22.6656064 35.2678212,21.5131038 36.2859588,21.5131038 L37.1317099,21.5131038 C37.5651574,21.5131038 37.9623583,21.7378365 38.1966659,22.0988614 C38.2855561,22.2357945 38.4024941,22.3582012 38.5476958,22.4658678 C38.8752086,22.7089721 39.2775876,22.8307379 39.7554801,22.8307379 C40.1921639,22.8307379 40.5300328,22.7463564 40.7688712,22.5773796 C41.0074938,22.4086165 41.1270209,22.1890108 41.1270209,21.9185626 C41.1270209,21.594281 40.9563604,21.3545947 40.6152552,21.1990762 C40.2741499,21.0437714 39.7213912,20.8715903 38.9571946,20.6821056 C38.1381969,20.4930482 37.4557707,20.2937368 36.909916,20.0841715 C36.3640613,19.8748197 35.8930729,19.5439158 35.497598,19.0910325 C35.1014757,18.6383628 34.9038462,18.0267567 34.9038462,17.2566414 C34.9038462,16.6078647 35.0844313,16.0169801 35.4462488,15.4829196 C35.8078505,14.9492863 36.339897,14.5271649 37.0430355,14.216128 C37.7457425,13.9055184 38.581569,13.75 39.5507307,13.75 C40.983761,13.75 42.1130113,14.1014118 42.9389132,14.8040219 C43.2476555,15.0669933 43.5074219,15.3620083 43.7179967,15.6892806 C44.2504747,16.5170744 43.6485243,17.6012173 42.6573557,17.6012173 L41.9842069,17.6012173 C41.5438554,17.6012173 41.1483804,17.3645216 40.909542,16.9983697 C40.8288505,16.8744677 40.7272309,16.7646649 40.6051148,16.6687476 C40.3114752,16.4391016 39.9259249,16.3241717 39.4484638,16.3241717 C39.038965,16.3241717 38.7250446,16.4021446 38.5067027,16.5572358 C38.2883609,16.7127542 38.1791899,16.9255239 38.1791899,17.1957585 C38.1791899,17.5200401 38.3533025,17.763358 38.7013118,17.9254988 C39.0493211,18.0876396 39.5917237,18.2497804 40.3287354,18.4119211 C41.1747023,18.6283225 41.8640326,18.8410922 42.3962948,19.0504439 C42.928557,19.2600093 43.3958777,19.5977491 43.7986882,20.0638772 C44.2010673,20.5302188 44.4092687,21.1552833 44.4230769,21.9388569 C44.4230769,22.6010919 44.2351562,23.1924037 43.859962,23.7123651 C43.4845521,24.2327536 42.9456015,24.6416304 42.2428945,24.9387817 C41.5397561,25.2357193 40.7244261,25.3846154 39.7964732,25.3846154 C38.8001266,25.3846154 37.9131667,25.2158523 37.135162,24.8778988" id="Fill-13" fill="#660099"></path>
                <path d="M52.8846154,23.6471504 L52.8846154,24.1230458 C52.8846154,24.8197758 52.3102459,25.3846154 51.6015392,25.3846154 L51.0546579,25.3846154 C49.7507439,25.3846154 48.7336821,25.0711305 48.0048027,24.4435067 C47.2754798,23.8163189 46.9110401,22.79237 46.9110401,21.3718779 L46.9110401,16.3271255 C46.1211989,16.3271255 45.4807692,15.6975397 45.4807692,14.9205855 L45.4807692,14.7965431 C45.4807692,14.0195889 46.1211989,13.3900031 46.9110401,13.3900031 L46.9110401,12.2446278 C46.9110401,11.3235752 47.6702895,10.5769231 48.6068819,10.5769231 L48.8119347,10.5769231 C49.7485271,10.5769231 50.5077766,11.3235752 50.5077766,12.2446278 L50.5077766,13.3900031 L51.3701067,13.3900031 C52.194973,13.3900031 52.8635559,14.047493 52.8635559,14.8586733 L52.8635559,14.8586733 C52.8635559,15.6696356 52.194973,16.3271255 51.3701067,16.3271255 L50.5077766,16.3271255 L50.41578,21.413298 C50.41578,21.758175 50.5920145,22.0062597 50.7602686,22.1579882 C50.9285227,22.3097166 51.2087246,22.3853628 51.6015392,22.3853628 C52.3102459,22.3853628 52.8846154,22.9504204 52.8846154,23.6471504" id="Fill-15" fill="#660099"></path>
            </g>
        </g>
    </g>
</svg>