<?xml version="1.0" encoding="iso-8859-1"?>
<!-- Generator: Adobe Illustrator 19.0.0, SVG Export Plug-In . SVG Version: 6.00 Build 0)  -->
<svg version="1.1" id="Layer_1" xmlns="http://www.w3.org/2000/svg" xmlns:xlink="http://www.w3.org/1999/xlink" x="0px" y="0px"
	 viewBox="0 0 511.999 511.999" style="enable-background:new 0 0 511.999 511.999;" xml:space="preserve">
<circle style="fill:#CEE8FA;" cx="256.004" cy="269.446" r="123.49"/>
<g>
	<path style="fill:#2D527C;" d="M255.999,406.537c-75.588,0-137.083-61.495-137.083-137.083S180.411,132.37,255.999,132.37
		s137.083,61.495,137.083,137.083S331.588,406.537,255.999,406.537z M255.999,159.553c-60.599,0-109.9,49.301-109.9,109.9
		s49.301,109.9,109.9,109.9s109.9-49.301,109.9-109.9S316.598,159.553,255.999,159.553z"/>
	<path style="fill:#2D527C;" d="M316.302,283.044H256c-7.506,0-13.591-6.085-13.591-13.591v-61.235
		c0-7.506,6.085-13.591,13.591-13.591s13.591,6.085,13.591,13.591v47.645h46.71c7.506,0,13.591,6.085,13.591,13.591
		S323.807,283.044,316.302,283.044z"/>
	<path style="fill:#2D527C;" d="M493.07,58.995c-13.003-13.722-31.306-21.592-50.216-21.592c-17.741,0-34.606,6.711-47.501,18.899
		l-11.407,10.533c-2.671,2.465-4.243,5.899-4.364,9.533c-0.121,3.633,1.218,7.164,3.719,9.802l28.887,30.484l-9.701,9.212
		c-38.493-39.273-91.112-61.553-146.486-61.553c-57.283,0-109.149,23.611-146.402,61.6l-9.778-9.265l28.88-30.476
		c2.499-2.638,3.84-6.169,3.719-9.802s-1.693-7.066-4.364-9.533l-11.407-10.533c-12.895-12.187-29.761-18.899-47.501-18.899
		c-18.91,0-37.213,7.871-50.216,21.592c-26.234,27.684-25.054,71.55,2.63,97.784c0.042,0.041,0.086,0.08,0.129,0.121l11.47,10.59
		c2.611,2.411,5.918,3.604,9.216,3.604c3.603,0,7.197-1.424,9.869-4.243l28.88-30.476l10.732,10.169
		c-25.732,34.278-40.997,76.844-40.997,122.908c0,47.41,16.174,91.11,43.283,125.889l-20.642,19.561
		c-5.449,5.163-5.68,13.765-0.516,19.214c2.672,2.82,6.267,4.243,9.867,4.243c3.356,0,6.718-1.235,9.347-3.725l20.043-18.992
		c37.046,36.435,87.82,58.953,143.761,58.953s106.717-22.518,143.761-58.953l20.043,18.992c2.629,2.491,5.99,3.725,9.347,3.725
		c3.6,0,7.195-1.423,9.867-4.243c5.163-5.449,4.931-14.051-0.516-19.214l-20.642-19.561c27.11-34.777,43.283-78.479,43.283-125.889
		c0-7.506-6.085-13.591-13.591-13.591c-7.506,0-13.591,6.085-13.591,13.591c0,98.127-79.832,177.96-177.96,177.96
		S78.039,367.58,78.039,269.453s79.834-177.96,177.96-177.96c52.158,0,101.513,22.775,135.411,62.484
		c0.118,0.139,0.247,0.258,0.37,0.391c0.067,0.072,0.122,0.151,0.19,0.223c0.06,0.063,0.126,0.116,0.188,0.177
		c0.156,0.156,0.315,0.307,0.478,0.454c0.231,0.213,0.468,0.419,0.709,0.613c0.043,0.034,0.088,0.068,0.132,0.102
		c2.444,1.91,5.39,2.887,8.35,2.887c3.361,0,6.728-1.24,9.356-3.736l19.698-18.704l28.872,30.468
		c2.671,2.819,6.264,4.243,9.869,4.243c3.299,0,6.605-1.193,9.216-3.604l11.47-10.59c0.044-0.041,0.087-0.08,0.129-0.121
		C518.124,130.545,519.304,86.679,493.07,58.995z M41.74,138.417l-1.544-1.426c-16.747-15.93-17.442-42.513-1.536-59.299
		c8.009-8.452,18.835-13.107,30.485-13.107c10.785,0,21.038,4.088,28.871,11.51c0.042,0.041,0.086,0.08,0.129,0.12l1.354,1.249
		L41.74,138.417z M471.803,136.991l-1.544,1.426l-57.759-60.95l1.354-1.249c0.043-0.039,0.086-0.08,0.129-0.12
		c7.833-7.422,18.086-11.51,28.871-11.51c11.649,0,22.476,4.655,30.485,13.107C489.245,94.478,488.551,121.061,471.803,136.991z"/>
</g>
<g>
</g>
<g>
</g>
<g>
</g>
<g>
</g>
<g>
</g>
<g>
</g>
<g>
</g>
<g>
</g>
<g>
</g>
<g>
</g>
<g>
</g>
<g>
</g>
<g>
</g>
<g>
</g>
<g>
</g>
</svg>
