<?xml version="1.0" encoding="utf-8"?>
<!-- Generator: Adobe Illustrator 25.4.1, SVG Export Plug-In . SVG Version: 6.00 Build 0)  -->
<svg version="1.1" id="Layer_1" fill="#fff" xmlns="http://www.w3.org/2000/svg" xmlns:xlink="http://www.w3.org/1999/xlink" x="0px" y="0px"
	 viewBox="0 0 1000 1000" style="enable-background:new 0 0 1000 1000;" xml:space="preserve">
<style type="text/css">
	.st0{fill-rule:evenodd;clip-rule:evenodd;}
</style>
<path d="M868.4,28.9H116.2c-50.9,0-92.1,41.2-92.1,92.1v593.3c0,50.9,41.2,92.1,92.1,92.1h623.5c13.7,0,26.8,5.7,36.2,15.4
	L908.3,959c24.6,25.3,67.5,7.9,67.5-27.3V136.2C975.8,77.1,927.7,28.9,868.4,28.9z M632.8,561.9c-10.7,10.7-25.6,17.4-42,17.4h-313
	c-32.8,0-59.3-26.6-59.3-59.3c0-16.4,6.7-31.3,17.4-42c10.7-10.7,25.6-17.4,42-17.4h313c32.8,0,59.3,26.6,59.3,59.3
	C650.2,536.3,643.5,551.2,632.8,561.9z M781.7,339.7c-10.7,10.7-25.6,17.4-42,17.4H277.8c-32.8,0-59.3-26.6-59.3-59.3
	c0-16.4,6.7-31.3,17.4-42c10.7-10.7,25.6-17.4,42-17.4h461.9c32.8,0,59.3,26.6,59.3,59.3C799.1,314.2,792.4,329,781.7,339.7z"/>
<path class="st0" d="M2169.4,715.3l-173,174.7V803c-109.4-22.7-195.8,2.3-261.4,85.5c11.4-171.1,128.3-253.7,261.4-259.2l0-88.8
	L2169.4,715.3L2169.4,715.3z"/>
</svg>
