<svg width="35" height="35" viewBox="0 0 35 35" fill="none" xmlns="http://www.w3.org/2000/svg">
<path d="M35 17.4838C35.0032 20.9457 33.9796 24.3307 32.0586 27.2107C30.1376 30.0907 27.4056 32.3362 24.2082 33.6632C21.0107 34.9902 17.4916 35.3391 14.0958 34.6657C10.7001 33.9923 7.5804 32.3269 5.13136 29.8801C2.68232 27.4333 1.014 24.3151 0.337449 20.92C-0.339104 17.5249 0.00651366 14.0054 1.33057 10.8068C2.65463 7.60813 4.89763 4.87405 7.77584 2.95041C10.654 1.02677 14.0381 1.47851e-06 17.5 0C22.1385 -1.98103e-06 26.5872 1.84152 29.8686 5.11991C33.1501 8.3983 34.9957 12.8453 35 17.4838Z" fill="#850E10"/>
<path d="M29.067 15.2259C29.108 15.2479 29.1539 15.259 29.2004 15.2584C29.2468 15.2578 29.2924 15.2454 29.3328 15.2223C29.3732 15.1993 29.4071 15.1664 29.4313 15.1268C29.4555 15.0871 29.4693 15.0419 29.4713 14.9955C29.4844 14.6839 29.4342 14.3729 29.324 14.0811C29.2137 13.7894 29.0456 13.523 28.8298 13.2979C28.6139 13.0728 28.3547 12.8937 28.0679 12.7714C27.781 12.649 27.4724 12.5859 27.1605 12.5859C26.8486 12.5859 26.54 12.649 26.2531 12.7714C25.9663 12.8937 25.7071 13.0728 25.4912 13.2979C25.2754 13.523 25.1073 13.7894 24.997 14.0811C24.8868 14.3729 24.8366 14.6839 24.8497 14.9955C24.8517 15.0419 24.8655 15.0871 24.8897 15.1268C24.9139 15.1664 24.9478 15.1993 24.9882 15.2223C25.0286 15.2454 25.0742 15.2578 25.1207 15.2584C25.1671 15.259 25.213 15.2479 25.254 15.2259C25.8218 14.8743 26.4765 14.6881 27.1443 14.6881C27.8122 14.6881 28.4668 14.8743 29.0346 15.2259H29.067Z" fill="white"/>
<path d="M9.71744 15.2269C9.75844 15.2488 9.80432 15.26 9.85081 15.2594C9.89729 15.2587 9.94286 15.2463 9.98325 15.2233C10.0236 15.2003 10.0575 15.1674 10.0818 15.1277C10.106 15.0881 10.1198 15.0429 10.1218 14.9964C10.1218 14.383 9.87811 13.7948 9.44437 13.361C9.01063 12.9273 8.42234 12.6836 7.80894 12.6836C7.19554 12.6836 6.60725 12.9273 6.17351 13.361C5.73976 13.7948 5.49609 14.383 5.49609 14.9964C5.49812 15.0429 5.51189 15.0881 5.53612 15.1277C5.56034 15.1674 5.59424 15.2003 5.63462 15.2233C5.67501 15.2463 5.72059 15.2587 5.76707 15.2594C5.81356 15.26 5.85944 15.2488 5.90044 15.2269C6.46903 14.8754 7.12429 14.6892 7.79276 14.6892C8.46124 14.6892 9.1165 14.8754 9.68509 15.2269H9.71744Z" fill="white"/>
<path d="M8.55171 20.1324C8.41789 20.1751 8.2941 20.2444 8.18783 20.3363C8.08156 20.4281 7.995 20.5405 7.9334 20.6668C7.8718 20.793 7.83643 20.9304 7.82942 21.0707C7.82241 21.211 7.84391 21.3512 7.89263 21.483C9.19462 24.7784 13.0157 27.5481 17.4998 27.5481C21.984 27.5481 25.8051 24.7662 27.107 21.483C27.1558 21.3512 27.1773 21.211 27.1703 21.0707C27.1632 20.9304 27.1279 20.793 27.0663 20.6668C27.0047 20.5405 26.9181 20.4281 26.8118 20.3363C26.7056 20.2444 26.5818 20.1751 26.448 20.1324C21.0419 18.3048 13.9578 18.3048 8.55171 20.1324Z" fill="white"/>
</svg>
