<?xml version="1.0" encoding="utf-8"?>
<!-- Generator: Adobe Illustrator 25.4.1, SVG Export Plug-In . SVG Version: 6.00 Build 0)  -->
<svg version="1.1" id="Layer_1" fill="#fff" xmlns="http://www.w3.org/2000/svg" xmlns:xlink="http://www.w3.org/1999/xlink" x="0px" y="0px"
	 viewBox="0 0 1000 1000" style="enable-background:new 0 0 1000 1000;" xml:space="preserve">
<style type="text/css">
	.st0{fill-rule:evenodd;clip-rule:evenodd;}
</style>
<g>
	<path d="M966.9,680.7c0,29.6-12,56.5-31.4,75.9c-18,18-42.5,29.7-69.7,31.2c-2.7,0.2-4.9,2.1-5.2,4.8c-0.3,2.6,1.3,5,3.8,5.9
		c34.4,11.8,59.1,44.4,59.1,82.7c0,24.2-9.8,46.1-25.6,61.9c-26.4,26.4-67,28.4-102,27.8c-44.4-0.7-88.8-1.5-133.2-1.8
		c-8.9-0.1-17.8-0.1-26.7-0.2c-52.5-0.4-105.1-0.6-157.6,0.2c-34.4,0.5-68.9,1.6-103.3,1.3c-24-0.2-52.7-1.5-68.3-22.6
		c-16.1-21.8-18.2-52.8-18.2-78.9c0,0,0-474.7,0-474.7c0-23,7.1-45.5,20.3-64.4L510.5,41.2c6.2-8.9,17-13.6,27.7-11.9
		c37,6,115.5,32.4,91,148.2c-3,14.1-6.1,28.2-8.7,42.4l-19.4,106c-3,16.5,9.4,31.9,26.2,32.3l285.3,7.3
		c40.8,15.2,69.9,54.5,69.9,100.6c0,29.6-12,56.5-31.4,75.9c-16.8,16.7-39,27.9-63.8,30.7l-0.5,4.2C932.9,589,966.9,631,966.9,680.7
		z"/>
	<path d="M37.8,968.7h166.9c2.7,0,4.8-2.2,4.8-4.8V420.2c0-2.7-2.2-4.8-4.8-4.8H37.8c-11.2,0-20.3,9.1-20.3,20.3v512.8
		C17.5,959.7,26.6,968.7,37.8,968.7z"/>
</g>
<g>
	<path d="M1433.6,185.7c0-4.8,1.9-9.2,5.1-12.3c2.9-2.9,6.9-4.8,11.3-5.1c0.4,0,0.8-0.3,0.8-0.8c0.1-0.4-0.2-0.8-0.6-0.9
		c-5.6-1.9-9.6-7.2-9.6-13.4c0-3.9,1.6-7.5,4.2-10c4.3-4.3,10.9-4.6,16.5-4.5c7.2,0.1,14.4,0.2,21.6,0.3c1.4,0,2.9,0,4.3,0
		c8.5,0.1,17,0.1,25.5,0c5.6-0.1,11.2-0.3,16.7-0.2c3.9,0,8.5,0.2,11.1,3.7c2.6,3.5,2.9,8.6,2.9,12.8c0,0,0,76.9,0,76.9
		c0,3.7-1.1,7.4-3.3,10.4l-32.7,46.8c-1,1.4-2.8,2.2-4.5,1.9c-6-1-18.7-5.2-14.7-24c0.5-2.3,1-4.6,1.4-6.9l3.1-17.2
		c0.5-2.7-1.5-5.2-4.2-5.2l-46.2-1.2c-6.6-2.5-11.3-8.8-11.3-16.3c0-4.8,1.9-9.1,5.1-12.3c2.7-2.7,6.3-4.5,10.3-5l0.1-0.7
		C1439.1,200.6,1433.6,193.8,1433.6,185.7z"/>
	<path d="M1567.2,139h-6c-2.7,0-4.8,2.2-4.8,4.8v80c0,2.7,2.2,4.8,4.8,4.8h6c11.2,0,20.3-9.1,20.3-20.3v-49.1
		C1587.5,148.1,1578.4,139,1567.2,139z"/>
</g>
<path d="M1593,363.8h-200.6c-13.6,0-24.6,11-24.6,24.6v158.3c0,13.6,11,24.6,24.6,24.6h166.3c3.6,0,7.2,1.5,9.7,4.1l35.3,36.6
	c6.6,6.8,18,2.1,18-7.3V392.4C1621.7,376.7,1608.9,363.8,1593,363.8z M1530.2,506c-2.8,2.8-6.8,4.6-11.2,4.6h-83.5
	c-8.7,0-15.8-7.1-15.8-15.8c0-4.4,1.8-8.3,4.6-11.2c2.8-2.8,6.8-4.6,11.2-4.6h83.5c8.7,0,15.8,7.1,15.8,15.8
	C1534.8,499.2,1533.1,503.2,1530.2,506z M1569.9,446.7c-2.8,2.8-6.8,4.6-11.2,4.6h-123.2c-8.7,0-15.8-7.1-15.8-15.8
	c0-4.4,1.8-8.3,4.6-11.2c2.8-2.8,6.8-4.6,11.2-4.6h123.2c8.7,0,15.8,7.1,15.8,15.8C1574.6,439.9,1572.8,443.9,1569.9,446.7z"/>
<path class="st0" d="M2169.4,715.3l-173,174.7V803c-109.4-22.7-195.8,2.3-261.4,85.5c11.4-171.1,128.3-253.7,261.4-259.2l0-88.8
	L2169.4,715.3L2169.4,715.3z"/>
</svg>
