<?xml version="1.0" encoding="iso-8859-1"?>
<!-- Generator: Adobe Illustrator 19.0.0, SVG Export Plug-In . SVG Version: 6.00 Build 0)  -->
<svg fill='#fff' version="1.1" id="Layer_1" xmlns="http://www.w3.org/2000/svg" xmlns:xlink="http://www.w3.org/1999/xlink" x="0px" y="0px"
	 viewBox="0 0 512.11 512.11" style="enable-background:new 0 0 512.11 512.11;" xml:space="preserve">
<g transform="translate(1 1)">
	<polygon style="fill:#fff;" points="432.426,255.11 78.903,498.919 78.903,259.986 78.903,11.3 	"/>
	<polygon style="fill:#fff;" points="78.903,52.748 78.903,457.472 371.474,255.11 	"/>
	<path style="fill:#fff;" d="M78.903,511.11c-2.438,0-3.657,0-6.095-1.219c-3.657-2.438-6.095-6.095-6.095-10.971V11.3
		c0-4.876,2.438-8.533,6.095-10.971s8.533-1.219,12.19,1.219l353.524,243.81c3.657,2.438,4.876,6.095,4.876,9.752
		s-2.438,7.314-4.876,9.752L84.998,508.672C83.779,509.891,81.341,511.11,78.903,511.11z M91.093,34.462v441.295L410.484,255.11
		L91.093,34.462z"/>
</g>
<g>
</g>
<g>
</g>
<g>
</g>
<g>
</g>
<g>
</g>
<g>
</g>
<g>
</g>
<g>
</g>
<g>
</g>
<g>
</g>
<g>
</g>
<g>
</g>
<g>
</g>
<g>
</g>
<g>
</g>
</svg>
