<?xml version="1.0" encoding="UTF-8"?>
<svg width="35px" height="35px" viewBox="0 0 35 35" version="1.1" xmlns="http://www.w3.org/2000/svg" xmlns:xlink="http://www.w3.org/1999/xlink">
    <title>icon_ accidents</title>
    <g id="icon_-accidents" stroke="none" stroke-width="1" fill="none" fill-rule="evenodd">
        <g transform="translate(6.000000, 5.000000)" fill="#D8D8D8" fill-rule="nonzero">
            <path d="M4.104636,14.6043609 C4.320687,14.6043609 4.482681,14.7663509 4.482681,14.9824059 L4.482681,14.9824059 L4.482681,17.3316999 L8.587327,17.3318879 C8.803378,17.3318879 8.965372,17.4938779 8.965372,17.7099339 L8.965372,17.7099339 L8.965372,20.0592269 L13.096973,20.0592269 C13.313024,20.0592269 13.475019,20.2212169 13.475019,20.4372729 L13.475019,20.4372729 L13.475019,22.7865659 L17.579549,22.7865279 C17.795599,22.7865279 17.957782,22.9756419 17.9575942,23.1916969 L17.9575942,23.1916969 L17.9575942,25.6219549 C17.9575942,25.8380049 17.795604,25.9999999 17.579549,25.9999999 L17.579549,25.9999999 L0.378045,25.9999999 C0.161995,25.9999999 0,25.8380099 0,25.6219549 L0,25.6219549 L0,14.9824059 C0,14.7663559 0.16199,14.6043609 0.378045,14.6043609 L0.378045,14.6043609 L4.104636,14.6043609 Z M12.155339,0.000823866624 L12.263567,0.0116048666 C12.80725,0.0688808666 13.207824,0.583807867 13.122001,1.12750187 L13.122001,1.12750187 L12.835792,3.27345687 C12.692932,4.30356587 11.977614,5.16176487 10.976066,5.44797387 C10.346586,5.61961387 9.860179,5.76271887 9.488152,5.87708287 L9.488152,5.87708287 L12.664166,9.16764987 L15.611278,8.62395687 C16.412639,8.48085687 17.242306,8.59522187 17.957625,8.96724787 L17.957625,8.96724787 L21.648541,10.7984739 C22.220754,11.0844989 22.478218,11.8285319 22.135131,12.3720209 C21.934944,12.8011349 21.50562,13.0300629 21.076511,13.0300629 C20.876109,13.0300629 20.704463,13.0015219 20.532818,12.9156989 L20.532818,12.9156989 L16.841877,11.0844839 C16.584413,10.9701199 16.269653,10.9128379 15.983443,10.9701199 L15.983443,10.9701199 L13.351072,11.4565109 L14.81027,12.6009179 C15.582865,13.2018869 16.097981,14.0603209 16.212345,15.0331029 L16.212345,15.0331029 L16.727272,19.0102729 C16.813111,19.6683149 16.355256,20.2692489 15.697214,20.3550719 L15.697214,20.3550719 L15.554109,20.3550719 C14.981906,20.3550719 14.466759,19.9259829 14.380936,19.3250129 L14.380936,19.3250129 L13.8656,15.4047109 C13.837059,15.0326939 13.665418,14.7466939 13.379209,14.5177669 L13.379209,14.5177669 L9.630992,11.5706549 L6.970109,9.25307387 C6.884287,9.68236787 6.798464,10.1687839 6.712641,10.7409879 C6.712641,10.8268109 6.712641,10.9413739 6.741181,11.0271969 L6.741181,11.0271969 L7.599615,13.5164539 C7.799802,14.0315849 7.513572,14.6038199 6.998645,14.7754649 C6.912822,14.8042059 6.798259,14.8327469 6.683895,14.8327469 C6.254601,14.8327469 5.882779,14.5752729 5.739674,14.1747049 L5.739674,14.1747049 L4.881241,11.6854479 C4.738336,11.2563589 4.709595,10.8270349 4.766877,10.3979259 C4.92929,9.41585287 5.060346,8.68248387 5.168519,8.13059987 L5.230745,7.82071087 C5.449336,6.76035887 5.565379,6.51333387 5.669117,6.36390687 L5.711097,6.30640687 L6.712645,4.99011887 C6.807275,4.85505087 6.889132,4.73907987 7.3047,4.55185187 L7.465792,4.48266487 C7.964676,4.27742087 8.838035,3.99028987 10.432352,3.53091987 C10.661075,3.44510287 10.832921,3.24492087 10.861462,3.01599287 L10.861462,3.01599287 L11.147671,0.870037867 C11.204947,0.326354867 11.719874,-0.0742181334 12.263567,0.0116048666 L12.155339,0.000823866624 Z M5.500252,2.18117087 C6.434305,2.96077087 6.559434,4.35007187 5.779676,5.28432887 C5.000081,6.21838187 3.610779,6.34351187 2.676523,5.56395187 C1.74247,4.78415287 1.61734,3.39485087 2.397099,2.46059487 C3.176694,1.52654187 4.565995,1.40141187 5.500252,2.18117087 Z"></path>
        </g>
    </g>
</svg>