<?xml version="1.0" encoding="UTF-8"?>
<svg width="69px" height="69px" viewBox="0 0 69 69" version="1.1" xmlns="http://www.w3.org/2000/svg" xmlns:xlink="http://www.w3.org/1999/xlink">
    <title>Icon_Success</title>
    <g id="Page-3" stroke="none" stroke-width="1" fill="none" fill-rule="evenodd">
        <g id="11.3.Ask-for-a-card" transform="translate(-145.000000, -73.000000)">
            <g id="Group" transform="translate(145.000000, 73.000000)">
                <path d="M34.5,6.9 C19.28205,6.9 6.9,19.2786 6.9,34.5 C6.9,49.71795 19.28205,62.1 34.5,62.1 C49.71795,62.1 62.1,49.71795 62.1,34.5 C62.1,19.2786 49.71795,6.9 34.5,6.9 M34.5,69 C15.4767,69 0,53.5233 0,34.5 C0,15.47325 15.4767,0 34.5,0 C53.5233,0 69,15.47325 69,34.5 C69,53.5233 53.5233,69 34.5,69" id="Fill-1" fill="#00DCFF"></path>
                <path d="M31.05,44.85 L31.05,44.85 C30.13575,44.85 29.256,44.48775 28.61085,43.83915 L21.71085,36.93915 C20.3619,35.5902 20.3619,33.40635 21.71085,32.0574 C23.0598,30.7119 25.2402,30.7119 26.58915,32.0574 L31.05,36.51825 L42.41085,25.1574 C43.7598,23.8119 45.9402,23.8119 47.28915,25.1574 C48.6381,26.50635 48.6381,28.6902 47.28915,30.03915 L33.48915,43.83915 C32.844,44.48775 31.96425,44.85 31.05,44.85" id="Path" fill="#71009F"></path>
            </g>
        </g>
    </g>
</svg>