<?xml version="1.0" encoding="UTF-8"?>
<svg width="35px" height="35px" viewBox="0 0 35 35" version="1.1" xmlns="http://www.w3.org/2000/svg" xmlns:xlink="http://www.w3.org/1999/xlink">
    <title>icon_jewelry</title>
    <g id="icon_jewelry" stroke="none" stroke-width="1" fill="none" fill-rule="evenodd">
        <g transform="translate(8.000000, 5.000000)" fill="#D8D8D8" fill-rule="nonzero">
            <path d="M1.7144535e-06,15.181395 C-0.00136756679,17.499353 0.817505433,19.743107 2.31214243,21.515022 C3.80678043,23.286937 5.88043443,24.472017 8.16535743,24.860887 C10.4505324,25.249756 12.7992574,24.817296 14.7959324,23.639618 C16.7924814,22.462166 18.3077984,20.615856 19.0732424,18.427962 C19.8384354,16.240067 19.8044534,13.851938 18.9771984,11.686425 C18.1499434,9.520912 16.5827014,7.718672 14.5533684,6.598655 L16.2622374,4.558037 L16.2622374,4.557791 C16.4585194,4.323088 16.5732824,4.031008 16.5892894,3.725391 C16.6052974,3.419516 16.5213194,3.117095 16.3504014,2.86317 L14.8498374,0.628243 C14.5919904,0.241593 14.1602374,0.006645 13.6955234,0 L6.44331143,0 C5.97293043,0 5.53355443,0.234204 5.27128243,0.624801 L3.77071843,2.859728 C3.59980543,3.113634 3.51606743,3.416061 3.53182943,3.721696 C3.54783743,4.027326 3.66259943,4.319652 3.85912743,4.554348 L5.41605543,6.414969 C3.78990243,7.231103 2.42236643,8.48295 1.46608043,10.030988 C0.509795433,11.578836 0.00220943321,13.361848 1.7144535e-06,15.1813 L1.7144535e-06,15.181395 Z M6.70823243,3.555034 L7.19906043,2.824076 L12.9293974,2.824076 L13.4202254,3.555034 L11.7396644,5.560472 L11.7394184,5.560472 C10.6146724,5.33587 9.45941343,5.309517 8.32558943,5.482648 L6.70823243,3.555034 Z M9.81181043,8.194104 C11.6648034,8.194104 13.4421404,8.930232 14.7523044,10.240648 C16.0627214,11.551065 16.7988494,13.328213 16.7988494,15.181142 C16.7988494,17.034387 16.0627214,18.811472 14.7523044,20.121889 C13.4421404,21.432053 11.6647404,22.168181 9.81181043,22.168181 C7.95888143,22.168181 6.18148043,21.432053 4.87131643,20.121889 C3.56090043,18.811472 2.82477143,17.034324 2.82477143,15.181142 C2.82674243,13.328654 3.56335843,11.552515 4.87327043,10.242603 C6.18318343,8.932943 7.95932243,8.196058 9.81181043,8.194104 Z"></path>
        </g>
    </g>
</svg>