<?xml version="1.0" encoding="UTF-8"?>
<svg width="19px" height="19px" viewBox="0 0 19 19" version="1.1" xmlns="http://www.w3.org/2000/svg" xmlns:xlink="http://www.w3.org/1999/xlink">
    <title>icon_info</title>
    <g id="Page-3" stroke="none" stroke-width="1" fill="none" fill-rule="evenodd">
        <g id="7.2.Approved" transform="translate(-140.000000, -172.000000)" fill="#44D9FF">
            <g id="Group-4" transform="translate(140.000000, 172.000000)">
                <path d="M8.3125,8.3125 C7.657,8.3125 7.125,8.8445 7.125,9.5 C7.125,10.1555 7.657,10.6875 8.3125,10.6875 L8.3125,14.25 C8.3125,14.9055 8.8445,15.4375 9.5,15.4375 L10.6875,15.4375 C11.343,15.4375 11.875,14.9055 11.875,14.25 C11.875,13.5945 11.343,13.0625 10.6875,13.0625 L10.6875,9.5 C10.6875,8.8445 10.1555,8.3125 9.5,8.3125 L8.3125,8.3125 Z M10.6875,4.75 C10.6875,5.4055 10.1555,5.9375 9.5,5.9375 C8.8445,5.9375 8.3125,5.4055 8.3125,4.75 C8.3125,4.0945 8.8445,3.5625 9.5,3.5625 C10.1555,3.5625 10.6875,4.0945 10.6875,4.75 L10.6875,4.75 Z M19,9.5 C19,14.746375 14.746375,19 9.5,19 C4.253625,19 0,14.746375 0,9.5 C0,4.253625 4.253625,0 9.5,0 C14.746375,0 19,4.253625 19,9.5 L19,9.5 Z" id="Icon_info"></path>
            </g>
        </g>
    </g>
</svg>