<?xml version="1.0" encoding="UTF-8"?>
<svg width="19px" height="19px" viewBox="0 0 19 19" version="1.1" xmlns="http://www.w3.org/2000/svg" xmlns:xlink="http://www.w3.org/1999/xlink">
    <title>Icon_attention</title>
    <g id="Page-3" stroke="none" stroke-width="1" fill="none" fill-rule="evenodd">
        <g id="7.0.Waiting-for-approval" transform="translate(-143.000000, -168.000000)" fill="#FFDC7B">
            <g id="Icon_attention" transform="translate(143.000000, 168.000000)">
                <path d="M9.5,3.5625 C8.8445,3.5625 8.3125,4.0945 8.3125,4.75 L8.3125,9.5 C8.3125,10.1555 8.8445,10.6875 9.5,10.6875 C10.1555,10.6875 10.6875,10.1555 10.6875,9.5 L10.6875,4.75 C10.6875,4.0945 10.1555,3.5625 9.5,3.5625 M10.6875,14.25 C10.6875,14.9055 10.1555,15.4375 9.5,15.4375 C8.8445,15.4375 8.3125,14.9055 8.3125,14.25 C8.3125,13.5945 8.8445,13.0625 9.5,13.0625 C10.1555,13.0625 10.6875,13.5945 10.6875,14.25 M19,9.5 C19,14.746375 14.746375,19 9.5,19 C4.253625,19 0,14.746375 0,9.5 C0,4.253625 4.253625,0 9.5,0 C14.746375,0 19,4.253625 19,9.5" id="Fill-1"></path>
            </g>
        </g>
    </g>
</svg>