<?xml version="1.0" encoding="UTF-8"?>
<svg width="35px" height="35px" viewBox="0 0 35 35" version="1.1" xmlns="http://www.w3.org/2000/svg" xmlns:xlink="http://www.w3.org/1999/xlink">
    <title>icon_car</title>
    <g id="icon_car" stroke="none" stroke-width="1" fill="none" fill-rule="evenodd">
        <g transform="translate(0.000000, 5.999987)" fill="#D8D8D8" fill-rule="nonzero" id="icon_car-">
            <path d="M23.010204,3.32714887e-06 C24.800316,0.0057551772 26.486376,0.832606177 27.574366,2.23789018 L30.471736,5.99701418 L33.030148,7.26813318 C33.606351,7.47523318 34.104117,7.85237818 34.456449,8.34858518 C34.808772,8.84448318 34.998385,9.43568318 35.0000154,10.0418162 L35.0000154,15.0356612 C35.002547,15.8194092 34.689945,16.5721102 34.131003,17.1279002 C33.572093,17.6839662 32.81269,17.9974982 32.019964,18.0000202 L30.897067,18.0007802 C30.701825,18.9490042 30.234298,19.8280642 29.541269,20.5245742 C28.607839,21.4622872 27.341623,21.9925432 26.018711,22.0001818 C24.691851,22.0048562 23.417487,21.4821852 22.476162,20.5470842 C21.771694,19.8472682 21.296936,18.9592822 21.101097,18.0006052 L14.897262,18.0004472 C14.701455,18.9519202 14.231315,19.8337082 13.534711,20.5310672 C12.597329,21.4691212 11.326236,21.9973642 10.000042,22.0001818 C8.6741,22.0001818 7.402671,21.4734462 6.464953,20.5360232 C5.766348,19.8376672 5.295714,18.9539042 5.101017,18.0004962 L2.984531,18.0000202 C2.193411,17.9986882 1.434992,17.6874032 0.875377,17.1341672 C0.316148,16.5812702 0.001312,15.8314322 0,15.0492232 L0,10.4686542 C0.001602,9.71942318 0.290828,8.99867918 0.80906,8.45180618 C1.326972,7.90492518 2.035457,7.57272418 2.791695,7.52205718 L7.668175,7.20887418 L13.357223,1.53901718 C14.355921,0.551954177 15.710394,-0.0015658228 17.122591,3.32714887e-06 L23.010204,3.32714887e-06 Z M9.999992,14.3470362 C9.297812,14.3470362 8.624207,14.6262522 8.127462,15.1226782 C7.630709,15.6194312 7.351821,16.2930612 7.351821,16.9951732 C7.351821,17.6976462 7.630709,18.3712592 8.127462,18.8680042 C8.624216,19.3644302 9.297846,19.6436462 9.999958,19.6436462 C10.702432,19.6436462 11.376045,19.3644302 11.872454,18.8680042 C12.369208,18.3712512 12.648095,17.6976212 12.648095,16.9951732 C12.647111,16.2933552 12.36757,15.6204312 11.871144,15.1240212 C11.374718,14.6279322 10.702104,14.3483802 9.999992,14.3470362 Z M26.018744,14.3469572 C25.316568,14.3469572 24.642966,14.6261712 24.146223,15.1225952 C23.649472,15.6193462 23.370585,16.2929722 23.370585,16.9950812 C23.370585,17.6975512 23.649472,18.3711602 24.146223,18.8679032 C24.642974,19.3643262 25.316601,19.6435402 26.018711,19.6435402 C26.721181,19.6435402 27.394791,19.3643262 27.891198,18.8679032 C28.38795,18.3711522 28.666836,17.6975252 28.666836,16.9950812 C28.665852,16.2932662 28.386312,15.6203452 27.889888,15.1239392 C27.393464,14.6278512 26.720854,14.3483012 26.018744,14.3469572 Z M22.987147,2.28357118 L17.122493,2.28357118 C16.328168,2.28642118 15.567132,2.59959918 15.005714,3.15503318 L8.985816,9.11121618 C8.78852,9.30691818 8.525554,9.42503118 8.246583,9.44276018 L2.938728,9.78317418 C2.576475,9.80692418 2.294937,10.1049102 2.29589512,10.4640012 L2.29589512,15.0492722 C2.29589512,15.4251522 2.604345,15.7300992 2.984531,15.7300992 L5.16396,15.7301122 C5.38692,14.8809872 5.831557,14.0978112 6.462686,13.4660152 C7.399731,12.5282982 8.671161,12.0007262 9.997018,12.0000532 C11.322876,11.9990702 12.594641,12.5250222 13.532695,13.4617312 C14.232775,14.1605582 14.704388,15.0454962 14.899194,16.0003002 L21.100909,16.0000972 C21.2947,15.0505852 21.762182,14.1700392 22.456171,13.4729122 C23.392289,12.5322592 24.663629,12.0023392 25.990489,12.0000612 C27.317348,11.9974462 28.59104,12.5224152 29.530434,13.4594732 C30.165306,14.0925292 30.612481,14.8783582 30.836216,15.7307382 L32.015536,15.7301962 C32.395721,15.7301962 32.704161,15.4252492 32.704161,15.0493692 L32.704161,10.0555242 C32.703521,9.76767418 32.519673,9.51149718 32.245179,9.41554618 L29.36961,8.05355218 C29.161737,7.97881918 28.979815,7.84645218 28.846253,7.67228918 L25.742338,3.64556518 C25.089905,2.79023518 24.070381,2.28640818 22.987147,2.28357118 Z"></path>
        </g>
    </g>
</svg>