<?xml version="1.0" encoding="UTF-8"?>
<svg width="19px" height="15px" viewBox="0 0 19 15" version="1.1" xmlns="http://www.w3.org/2000/svg" xmlns:xlink="http://www.w3.org/1999/xlink">
    <title>icon_eye</title>
    <defs>
        <polygon id="path-1" points="0 0 19 0 19 14.4180658 0 14.4180658"></polygon>
    </defs>
    <g id="Page-3" stroke="none" stroke-width="1" fill="none" fill-rule="evenodd">
        <g id="3.1.Change-password" transform="translate(-312.000000, -309.000000)">
            <g id="icon_eye" transform="translate(312.000000, 309.000000)">
                <g id="Group-6" transform="translate(0.000000, -0.000000)">
                    <path d="M9.49990988,5.40649308 C8.50593341,5.40649308 7.69759533,6.21483115 7.69759533,7.20880763 C7.69759533,8.2027841 8.50593341,9.01112218 9.49990988,9.01112218 C10.4938864,9.01112218 11.3022244,8.2027841 11.3022244,7.20880763 C11.3022244,6.21483115 10.4938864,5.40649308 9.49990988,5.40649308 M9.49990988,10.8134367 C7.51195693,10.8134367 5.89528078,9.19676058 5.89528078,7.20880763 C5.89528078,5.22085468 7.51195693,3.60417852 9.49990988,3.60417852 C11.4878628,3.60417852 13.104539,5.22085468 13.104539,7.20880763 C13.104539,9.19676058 11.4878628,10.8134367 9.49990988,10.8134367" id="Fill-1" fill="#660099"></path>
                    <g id="Group-5">
                        <mask id="mask-2" fill="white">
                            <use xlink:href="#path-1"></use>
                        </mask>
                        <g id="Clip-4"></g>
                        <path d="M1.85061658,7.20880763 C2.99418516,10.4547761 6.0328875,12.6157513 9.49963954,12.6157513 C12.9681939,12.6157513 16.0068962,10.4547761 17.1495637,7.20880763 C16.0068962,3.96283912 12.9681939,1.80186397 9.49963954,1.80186397 C6.0328875,1.80186397 2.99418516,3.96283912 1.85061658,7.20880763 M9.49963954,14.4180658 C5.14614874,14.4180658 1.34506735,11.6298852 0.0410927718,7.47915481 C-0.013877822,7.30252798 -0.013877822,7.11508727 0.0410927718,6.93846044 C1.34506735,2.78863119 5.14614874,-0.000450578638 9.49963954,-0.000450578638 C13.8540315,-0.000450578638 17.656014,2.78863119 18.9581863,6.9393616 C19.0140581,7.11508727 19.0140581,7.30252798 18.9581863,7.47825365 C17.656014,11.6298852 13.8540315,14.4180658 9.49963954,14.4180658" id="Fill-3" fill="#660099" mask="url(#mask-2)"></path>
                    </g>
                </g>
            </g>
        </g>
    </g>
</svg>