<?xml version="1.0" encoding="UTF-8"?>
<svg width="35px" height="35px" viewBox="0 0 35 35" version="1.1" xmlns="http://www.w3.org/2000/svg" xmlns:xlink="http://www.w3.org/1999/xlink">
    <title>icon_mobile</title>
    <g id="icon_mobile" stroke="none" stroke-width="1" fill="none" fill-rule="evenodd">
        <g transform="translate(9.000000, 5.000000)" fill="#D8D8D8" fill-rule="nonzero">
            <path d="M12.593978,0 C13.504615,0.00109 14.37758,0.363317 15.021563,1.007137 C15.665377,1.65112 16.027635,2.524084 16.028699,3.434721 L16.028699,3.434721 L16.028699,21.565279 C16.027609,22.475916 15.665382,23.34888 15.021563,23.992863 C14.37758,24.636677 13.504615,24.998935 12.593978,25 L12.593978,25 L3.434721,25 C2.524084,24.99891 1.65112,24.636683 1.007137,23.992863 C0.363323,23.34888 0.001065,22.475916 0,21.565279 L0,21.565279 L0,3.434721 C0.00109,2.524084 0.363317,1.65112 1.007137,1.007137 C1.65112,0.363323 2.524084,0.001065 3.434721,0 L3.434721,0 L12.593978,0 Z M13.738885,20.420372 L2.289792,20.420372 L2.289792,21.565279 C2.290218,21.868772 2.410727,22.1599 2.625425,22.374564 C2.840122,22.589229 3.131234,22.709771 3.43471,22.710197 L3.43471,22.710197 L12.593967,22.710197 C12.89746,22.709771 13.188588,22.589262 13.403253,22.374564 C13.617918,22.159867 13.738459,21.868755 13.738885,21.565279 L13.738885,21.565279 L13.738885,20.420372 Z M12.593989,2.289803 L3.434732,2.289803 C3.131239,2.290229 2.840111,2.410738 2.625446,2.625436 C2.410782,2.840133 2.29024,3.131245 2.289814,3.434721 L2.289814,3.434721 L2.289814,18.130557 L13.738907,18.130557 L13.738907,3.434721 C13.738482,3.131228 13.617972,2.8401 13.403275,2.625436 C13.188577,2.410771 12.897466,2.290229 12.593989,2.289803 L12.593989,2.289803 Z M9.159257,3.434721 C9.56837,3.434721 9.946195,3.653011 10.150855,4.007175 C10.355303,4.361333 10.355303,4.797919 10.150855,5.152082 C9.94619,5.506245 9.568365,5.724535 9.159257,5.724535 L9.159257,5.724535 L6.869443,5.724535 C6.460329,5.724535 6.082504,5.506245 5.877844,5.152082 C5.673396,4.797924 5.673396,4.361338 5.877844,4.007175 C6.08251,3.653011 6.460335,3.434721 6.869443,3.434721 L6.869443,3.434721 L9.159257,3.434721 Z"></path>
        </g>
    </g>
</svg>