<?xml version="1.0" encoding="UTF-8"?>
<svg width="35px" height="35px" viewBox="0 0 35 35" version="1.1" xmlns="http://www.w3.org/2000/svg" xmlns:xlink="http://www.w3.org/1999/xlink">
    <title>icon_home</title>
    <g id="icon_home" stroke="none" stroke-width="1" fill="none" fill-rule="evenodd">
        <g transform="translate(3.000000, 5.000000)" fill="#D8D8D8" fill-rule="nonzero" id="icon_home-">
            <path d="M28.177263,10.8726202 L16.38503,0.71485125 L16.3268,0.65662125 C15.100666,-0.21887375 13.466204,-0.21887375 12.240487,0.65662125 L12.182257,0.71485125 L0.390024992,10.8726202 C-0.0770460078,11.2814602 -0.135278008,12.0400642 0.273154992,12.5071872 C0.681994992,12.9742582 1.44059899,13.0324902 1.90772199,12.6240572 L2.60812599,12.0401162 L2.60812599,21.4971482 C2.60812599,23.4236022 4.18441899,25 6.11097699,25 L22.456646,25 C24.383099,25 25.959497,23.4237062 25.959497,21.4971482 L25.959497,12.0401162 L26.659901,12.6240572 C26.893233,12.7991582 27.126972,12.9160272 27.418932,12.9160272 C27.769134,12.9160272 28.061104,12.7991582 28.294426,12.5071872 C28.703266,12.0401162 28.645034,11.3397442 28.177963,10.8726202 L28.177263,10.8726202 Z M16.735295,22.6648522 L11.831699,22.6648522 L11.831699,14.7255282 L16.735295,14.7255282 L16.735295,22.6648522 Z M23.624035,10.5807332 L23.624035,21.5556822 C23.624035,22.1978542 23.098732,22.7231262 22.456591,22.7231262 L19.070703,22.7231262 L19.070703,13.5576672 C19.070703,12.9154952 18.5454,12.3902242 17.90326,12.3902242 L10.664359,12.3902242 C10.022187,12.3902242 9.49691599,12.9155272 9.49691599,13.5576672 L9.49691599,22.7231262 L6.11102699,22.7231262 C5.46885499,22.7231262 4.94358399,22.1978232 4.94358399,21.5556822 L4.94317699,10.0553372 L13.641512,2.52486325 C14.050351,2.29153025 14.517006,2.29153025 14.925814,2.52486325 L23.682422,10.1140272 C23.682422,10.2304902 23.624192,10.4055912 23.624192,10.5806922 L23.624035,10.5807332 Z"></path>
        </g>
    </g>
</svg>