<?xml version="1.0" encoding="UTF-8"?>
<svg width="35px" height="35px" viewBox="0 0 35 35" version="1.1" xmlns="http://www.w3.org/2000/svg" xmlns:xlink="http://www.w3.org/1999/xlink">
    <title>Artboard 2</title>
    <g id="Artboard" stroke="none" stroke-width="1" fill="none" fill-rule="evenodd">
        <g id="icon_scooter" transform="translate(3.000000, 5.000000)" fill="#D8D8D8" fill-rule="nonzero">
            <path d="M3.79664,17.406123 C4.803599,17.406123 5.769311,17.806321 6.481491,18.518211 C7.193686,19.230346 7.593579,20.196103 7.593579,21.203061 C7.593579,22.21002 7.193671,23.175732 6.481491,23.887912 C5.769356,24.599817 4.803599,25 3.79664,25 C2.789682,25 1.823977,24.599802 1.112088,23.887912 C0.399893,23.175777 0,22.21002 0,21.203061 C0,20.196103 0.399908,19.230391 1.112088,18.518211 C1.823925,17.806306 2.789607,17.406123 3.79664,17.406123 Z M24.54841,17.406048 C25.557455,17.406048 26.525201,17.807938 27.237657,18.522756 C27.950113,19.237573 28.34855,20.206459 28.3453869,21.215504 C28.341847,22.221941 27.939369,23.185582 27.225736,23.895139 C26.512408,24.60469 25.546428,25.002254 24.539991,24.9999461 C23.533927,24.997616 22.569675,24.596278 21.859238,23.883516 C21.148816,23.170785 20.750673,22.205103 20.7515436,21.198964 C20.752664,20.192526 21.15316,19.228029 21.86505,18.516721 C22.57726,17.805725 23.542346,17.406048 24.548485,17.406048 L24.54841,17.406048 Z M3.79664,19.909706 C3.453827,19.909706 3.124657,20.045912 2.882219,20.28864 C2.639491,20.531048 2.503285,20.860211 2.503285,21.203061 C2.503285,21.546173 2.639491,21.875053 2.882219,22.117781 C3.124627,22.360218 3.45379,22.496424 3.79664,22.496424 C4.139752,22.496424 4.468632,22.360218 4.71136,22.117781 C4.953797,21.875075 5.090003,21.546202 5.090003,21.203061 C5.090003,20.860248 4.953797,20.531078 4.71136,20.28864 C4.468654,20.045912 4.139781,19.909706 3.79664,19.909706 Z M24.556912,19.909632 C24.213197,19.9073 23.882573,20.042053 23.638392,20.283909 C23.394212,20.526041 23.256257,20.855204 23.2550777,21.198926 C23.25393,21.542678 23.389845,21.872721 23.632574,22.11603 C23.875011,22.359637 24.204763,22.496432 24.548485,22.496432 C24.889309,22.496432 25.216438,22.361977 25.458585,22.122154 C25.701022,21.882332 25.838683,21.556365 25.841885,21.215556 C25.845372,20.871819 25.711498,20.540905 25.470513,20.295845 C25.229506,20.050785 24.900626,19.911964 24.556912,19.909632 Z M22.087199,0 C22.861697,0 23.604708,0.307594 24.152452,0.855337 C24.700158,1.403111 25.007789,2.146092 25.007789,2.92059 L25.007789,2.92059 L25.007789,15.19474 C25.102085,15.571037 25.016812,15.969767 24.776699,16.274194 C24.536638,16.578912 24.169022,16.754992 23.781155,16.751559 C22.768012,16.752453 21.796533,17.15552 21.079987,17.872066 C20.363441,18.588597 19.960346,19.560091 19.959182,20.573234 L19.959182,20.573234 L19.959182,22.196363 L8.365707,22.196363 L8.365707,20.944575 C8.365707,19.835691 7.927086,18.771958 7.145361,17.98554 C6.363338,17.199151 5.302213,16.753857 4.193329,16.747163 L4.193329,16.747163 L3.959624,16.747163 C3.512576,16.747163 3.099295,16.508786 2.875774,16.121425 C2.652254,15.734065 2.652254,15.257013 2.875774,14.869638 C3.099295,14.482262 3.512583,14.2439 3.959624,14.2439 L3.959624,14.2439 L4.193329,14.2439 C5.749552,14.25001 7.25511,14.796889 8.452433,15.791107 C9.649831,16.785027 10.464421,18.16452 10.756629,19.6931 L10.756629,19.6931 L17.497479,19.6931 C17.683448,18.400259 18.264377,17.196528 19.160768,16.246567 C20.05686,15.296606 21.22453,14.646676 22.504258,14.385612 L22.504258,14.385612 L22.504258,2.920605 C22.504258,2.810015 22.460314,2.704073 22.382313,2.625782 C22.304029,2.547493 22.197797,2.503546 22.087199,2.503546 L22.087199,2.503546 L20.418099,2.503546 C19.971051,2.503546 19.55777,2.264893 19.334249,1.877518 C19.110729,1.490455 19.110729,1.013113 19.334249,0.626028 C19.55777,0.238653 19.971058,0 20.418099,0 L20.418099,0 L22.087199,0 Z" id="icon_"></path>
        </g>
    </g>
</svg>