<?xml version="1.0" encoding="UTF-8"?>
<svg width="19px" height="19px" viewBox="0 0 19 19" version="1.1" xmlns="http://www.w3.org/2000/svg" xmlns:xlink="http://www.w3.org/1999/xlink">
    <title>Icon_eye_off</title>
    <defs>
        <polygon id="path-1" points="0 0 19 0 19 18.0222907 0 18.0222907"></polygon>
    </defs>
    <g id="Page-3" stroke="none" stroke-width="1" fill="none" fill-rule="evenodd">
        <g id="1.2.Create-account" transform="translate(-312.000000, -333.000000)">
            <g id="Group" transform="translate(16.000000, 199.000000)">
                <g id="Group-3" transform="translate(296.000000, 134.000000)">
                    <mask id="mask-2" fill="white">
                        <use xlink:href="#path-1"></use>
                    </mask>
                    <g id="Clip-2"></g>
                    <path d="M9.49990989,16.2200617 C5.14572445,16.2200617 1.34482333,13.4311122 0.0409106,9.28057861 C-0.0140573868,9.10486128 -0.0140573868,8.91652834 0.0409106,8.740811 C0.382433009,7.65677022 0.903277211,6.64571971 1.59172872,5.73739625 C1.89179986,5.34090586 2.45589756,5.26070666 2.85419018,5.56258003 C3.25068058,5.86355229 3.32907754,6.4285511 3.02810529,6.8250415 C2.52348115,7.49186626 2.12789187,8.2262746 1.85034859,9.01114536 C2.99386294,12.2569599 6.03332227,14.4178326 9.49990989,14.4178326 C10.0099407,14.4178326 10.5217738,14.3691724 11.0209912,14.2754565 C11.5175053,14.1835428 11.9815793,14.5043396 12.0743941,14.9927437 C12.1663078,15.4820488 11.845511,15.9533318 11.3571069,16.0461465 C10.7479535,16.1614892 10.12258,16.2200617 9.49990989,16.2200617 M9.03223144,7.26929097 L11.2408632,9.47792269 C11.2805122,9.32743657 11.302139,9.17064264 11.302139,9.01114536 C11.302139,8.01631492 10.4929381,7.20891629 9.49990989,7.20891629 C9.3395115,7.20891629 9.18271757,7.22874081 9.03223144,7.26929097 M12.6051506,10.8422101 L14.4749632,12.7120228 C15.6995779,11.7595447 16.6322314,10.471852 17.1494712,9.01024425 C16.0050557,5.76442969 12.9664975,3.60445815 9.49990989,3.60445815 C8.31944985,3.60445815 7.16512212,3.85767133 6.10811477,4.34517429 L7.66794404,5.90500356 C8.21672279,5.57970121 8.84479962,5.40668722 9.49990989,5.40668722 C11.4877686,5.40668722 13.104368,7.0232867 13.104368,9.01114536 C13.104368,9.66535452 12.9304529,10.2934313 12.6051506,10.8422101 M17.6099407,18.0222907 C17.3792554,18.0222907 17.1485701,17.9339815 16.9719516,17.7582642 L13.7513683,14.5385819 C13.7423571,14.5295708 13.7351482,14.5205596 13.7261371,14.5115485 L10.7740858,11.5594973 L4.00040787,4.7858193 C3.99139673,4.77770927 3.98238558,4.76869813 3.97427555,4.75968698 L0.751889969,1.53820251 C0.4004553,1.18586673 0.4004553,0.615461228 0.751889969,0.263125445 C1.10422575,-0.0883092246 1.67463125,-0.0883092246 2.02696704,0.263125445 L4.76635523,3.00341475 C6.21354517,2.21493953 7.83555134,1.80222907 9.49990989,1.80222907 C13.8540953,1.80222907 17.6540953,4.59027745 18.9589092,8.740811 C19.0138772,8.91652834 19.0138772,9.10486128 18.9589092,9.28057861 C18.3767892,11.132369 17.2567038,12.7732986 15.7581503,13.9952099 L18.2470287,16.4840882 C18.5984634,16.836424 18.5984634,17.4059284 18.2470287,17.7582642 C18.0704102,17.9339815 17.8397249,18.0222907 17.6099407,18.0222907" id="Fill-1" fill="#660099" mask="url(#mask-2)"></path>
                </g>
            </g>
        </g>
    </g>
</svg>