<?xml version="1.0" encoding="UTF-8"?>
<svg width="35px" height="35px" viewBox="0 0 35 35" version="1.1" xmlns="http://www.w3.org/2000/svg" xmlns:xlink="http://www.w3.org/1999/xlink">
    <title>icon_glasses</title>
    <g id="icon_glasses" stroke="none" stroke-width="1" fill="none" fill-rule="evenodd">
        <g transform="translate(3.000000, 6.000000)" fill="#D8D8D8" fill-rule="nonzero">
            <path d="M26.9627862,14.6882405 L26.9627862,14.6882405 L26.9627862,14.5539709 C26.9627862,14.3527997 26.895886,14.1516285 26.8285164,13.9504573 L24.2797751,1.07321194 C24.1455053,0.469698364 23.6088936,0 22.9385151,0 L19.5850656,0 C18.8472828,0 18.2438057,0.603512647 18.2438057,1.34126042 C18.2438057,2.07904272 18.8473187,2.68251991 19.5850656,2.68251991 L21.8652915,2.68251991 L23.2739797,9.8591409 C22.536197,9.59106909 21.798462,9.3894304 20.9263257,9.3894304 C18.511842,9.3894304 16.4327034,10.7981196 15.4264291,12.8098297 C14.2194268,12.4074873 12.8107385,12.4074873 11.6032572,12.8098297 C10.597414,10.79764 8.51784418,9.32212202 6.10336062,9.32212202 C5.2986765,9.32212202 4.49358507,9.45639167 3.75570647,9.79183251 L5.16439472,2.68263935 L7.44462057,2.68263935 C8.18240343,2.68263935 8.78588062,2.0791267 8.78588062,1.34137986 C8.78588062,0.603596629 8.1823675,0 7.44462057,0 L4.0911712,0 C3.4202897,0 2.88416895,0.469829935 2.74991115,1.07333138 L0.201169794,13.8835082 C0.134269744,14.0846794 0.0669001435,14.3532187 0.0669001435,14.6212914 L0.0669001435,14.6881911 C0.0669001435,14.9562638 0,15.1579016 0,15.4259743 C0,18.7794235 2.74994829,21.4619434 6.03596946,21.4619434 C9.38941883,21.4619434 12.0719388,18.7794235 12.0719388,15.4259743 C12.876623,15.0905335 13.8829213,15.0905335 14.6876294,15.4259743 C14.6876294,18.7794235 17.4375777,21.4619434 20.7235989,21.4619434 C24.0770483,21.4619434 26.7595683,18.7119947 26.7595683,15.4259743 C27.029976,15.1579016 27.029976,14.8893623 26.9626077,14.6881911 L26.9627862,14.6882405 Z M6.17139964,18.7794841 C4.29346803,18.7794841 2.81795027,17.2369816 2.81795027,15.4259995 C2.81795027,15.2248283 2.81795027,15.0905587 2.88485042,14.956289 L2.95175047,14.6208482 C3.35409258,13.1453302 4.62847525,12.0721061 6.23825071,12.0721061 C8.11618242,12.0721061 9.59170017,13.6145732 9.59170017,15.4255563 C9.59170017,17.2370171 8.04923319,18.7794841 6.17130148,18.7794841 L6.17139964,18.7794841 Z M20.9265772,18.7794841 C19.0486455,18.7794841 17.5731277,17.2369816 17.5731277,15.4259995 C17.5731277,13.6150164 19.1155947,12.0725494 20.9265772,12.0725494 C22.5363526,12.0725494 23.8103041,13.1457613 24.2130774,14.6212914 L24.2799775,14.9567313 C24.2799775,15.1579025 24.3468776,15.2921721 24.3468776,15.4933433 C24.3468776,17.2370171 22.8044106,18.7794841 20.9264789,18.7794841 L20.9265772,18.7794841 Z"></path>
        </g>
    </g>
</svg>