<?xml version="1.0" encoding="UTF-8"?>
<svg width="50px" height="49px" viewBox="0 0 50 49" version="1.1" xmlns="http://www.w3.org/2000/svg" xmlns:xlink="http://www.w3.org/1999/xlink">
    <title>Icon_add</title>
    <g id="Page-3" stroke="none" stroke-width="1" fill="none" fill-rule="evenodd">
        <g id="4.0.Onboarding" transform="translate(-70.000000, -219.000000)" fill="#20CCF8">
            <g id="Icon_add" transform="translate(70.000000, 219.000000)">
                <g id="Group-3" transform="translate(0.980769, 0.211538)">
                    <path d="M24.3254986,48.0576923 C24.1211644,48.0576923 23.9192627,48.0308281 23.7197937,47.981984 C9.75452493,44.3724063 0,31.7291157 0,17.2321921 C0,14.5311144 0.33812443,11.8471321 1.00707564,9.25595354 C1.29654907,8.13253966 2.29146197,7.36324537 3.48584395,7.42918488 C10.4550993,7.78086227 17.4486801,5.34354257 22.7029878,0.622762046 C23.6273568,-0.207587349 25.0260729,-0.207587349 25.9480093,0.622762046 C31.1998845,5.34354257 38.1837351,7.78574668 45.1675858,7.42918488 C46.3400748,7.37057198 47.3568806,8.13498186 47.6439215,9.25595354 C48.3104402,11.8495743 48.6509972,14.5335566 48.6509972,17.2321921 C48.6509972,31.7291157 38.8964722,44.3724063 24.9312035,47.981984 C24.7317344,48.0308281 24.5298328,48.0576923 24.3254986,48.0576923" id="Fill-1" opacity="0.15"></path>
                    <path d="M26.03125,18.0216346 C26.03125,16.9163077 25.1341731,16.0192308 24.0288462,16.0192308 C22.9235192,16.0192308 22.0264423,16.9163077 22.0264423,18.0216346 L22.0264423,22.0264423 L18.0216346,22.0264423 C16.9163077,22.0264423 16.0192308,22.9235192 16.0192308,24.0288462 C16.0192308,25.1341731 16.9163077,26.03125 18.0216346,26.03125 L22.0264423,26.03125 L22.0264423,30.0360577 C22.0264423,31.1413846 22.9235192,32.0384615 24.0288462,32.0384615 C25.1341731,32.0384615 26.03125,31.1413846 26.03125,30.0360577 L26.03125,26.03125 L30.0360577,26.03125 C31.1413846,26.03125 32.0384615,25.1341731 32.0384615,24.0288462 C32.0384615,22.9235192 31.1413846,22.0264423 30.0360577,22.0264423 L26.03125,22.0264423 L26.03125,18.0216346 Z" id="Path"></path>
                </g>
            </g>
        </g>
    </g>
</svg>