<?xml version="1.0" encoding="UTF-8"?>
<svg width="35px" height="35px" viewBox="0 0 35 35" version="1.1" xmlns="http://www.w3.org/2000/svg" xmlns:xlink="http://www.w3.org/1999/xlink">
    <title>icon_pet</title>
    <g id="icon_pet" stroke="none" stroke-width="1" fill="none" fill-rule="evenodd">
        <g transform="translate(0.000000, 0.000000)" fill="#D8D8D8" fill-rule="nonzero">
            <path d="M16.5102938,14.1034446 C17.8383888,13.7475706 19.2556168,14.1273576 20.2280398,15.0997806 C21.2002828,16.0720016 21.5800588,17.4892296 21.2243768,18.8173296 L21.2243768,18.8173296 L19.4893588,27.2799826 C19.3181208,27.9345006 18.9756898,28.5316906 18.4973708,29.0100096 C18.0190458,29.4883346 17.4218098,29.8305736 16.7673438,30.0017966 C16.4369498,30.0906696 16.0962638,30.1358946 15.7538168,30.1362896 C14.7377628,30.1353286 13.7641268,29.7280886 13.0497998,29.0052676 L13.0497998,29.0052676 L6.32216383,22.2774146 C5.68228783,21.6375586 5.28829283,20.7926926 5.20949383,19.8913536 C5.13052383,18.9898116 5.37183483,18.0894336 5.89085783,17.3482606 C6.40983083,16.6070876 7.17355183,16.0722806 8.04764083,15.8380576 L8.04764083,15.8380576 L16.5102938,14.1034446 Z M17.5139668,16.1828136 C17.3684168,16.1830106 17.2234588,16.2023636 17.0828478,16.2402816 L17.0828478,16.2402816 L8.62019383,17.9750976 C8.34192083,18.0477736 8.08794483,18.1933236 7.88453183,18.3967366 C7.68111383,18.6001806 7.53556383,18.8541356 7.46284583,19.1325856 C7.38681383,19.4100456 7.38582283,19.7027226 7.46027883,19.9807896 C7.53473483,20.2586586 7.68186183,20.5116426 7.88646383,20.7138726 L7.88646383,20.7138726 L14.6141498,27.4415596 C14.8862508,27.7138976 15.2455118,27.8813716 15.6288388,27.9149446 C16.0123678,27.9485146 16.3953208,27.8458226 16.7105168,27.6252246 C17.0259048,27.4043896 17.2532108,27.0795376 17.3527488,26.7078586 L17.3527488,26.7078586 L19.0877658,18.2452056 C19.2188968,17.7548486 19.1152138,17.2312946 18.8073288,16.8276236 C18.4992318,16.4239476 18.0217158,16.1859736 17.5139668,16.1828136 Z M22.5867958,17.8635726 C23.6953188,16.7548496 25.3109858,16.3219526 26.8253338,16.7275956 C28.3394808,17.1332186 29.5224558,18.3160116 29.9280988,19.8303606 C30.3339238,21.3445066 29.9010498,22.9603746 28.7925268,24.0688986 L28.7925268,24.0688986 L28.6239448,24.2286506 C27.8205678,24.9514366 26.7758228,25.3541716 25.6897668,25.3541716 C24.5259328,25.3541716 23.4097248,24.8918236 22.5867998,24.0691006 C21.7640528,23.2461766 21.3017298,22.1299676 21.3017298,20.9663366 C21.3015278,19.8025536 21.7638758,18.6864966 22.5867998,17.8635726 L22.5867958,17.8635726 Z M25.6898018,18.7910846 C25.0122308,18.7910846 24.3733458,19.1060576 23.9607858,19.6436356 C23.5484258,20.1811636 23.4095878,20.8801206 23.5851588,21.5343856 C23.7606948,22.1888516 24.2307278,22.7242506 24.8567818,22.9831606 C25.4828348,23.2420706 26.1937748,23.1950676 26.7803428,22.8559786 C27.3666778,22.5166876 27.7620528,21.9240016 27.8499368,21.2521426 C27.9376038,20.5802846 27.7079368,19.9058376 27.2282318,19.4273206 L27.2282318,19.4273206 L27.0869358,19.2982806 C26.6966378,18.9719746 26.2025678,18.7912606 25.6898018,18.7910846 Z M21.7021448,7.63061265 C22.8827138,6.94828365 24.3135408,6.85366565 25.5735348,7.37486265 C26.8335288,7.89605965 27.7795058,8.97354165 28.1332108,10.2904126 C28.4867088,11.6072336 28.2078848,13.0137936 27.3783878,14.0960276 C26.5488908,15.1782616 25.2632638,15.8131816 23.8997788,15.8140172 C22.7359958,15.8161756 21.6193828,15.3542316 20.7970138,14.5307006 C19.8324828,13.5669736 19.3709488,12.2094036 19.5482948,10.8573946 C19.7256498,9.50558865 20.5217288,8.31293665 21.7021448,7.63061265 Z M12.0478868,5.72510065 C13.2284548,5.04257465 14.6590808,4.94815265 15.9190748,5.46935065 C17.1792708,5.99054765 18.1252428,7.06802865 18.4787508,8.38490065 C18.8324508,9.70172065 18.5536258,11.1082816 17.7241288,12.1905146 C16.8946328,13.2727486 15.6090058,13.9076686 14.2453178,13.9085019 C13.0817378,13.9104606 11.9651248,13.4487196 11.1427558,12.6251886 C10.1782248,11.6614616 9.71669083,10.3038916 9.89403683,8.95188265 C10.0713918,7.59987365 10.8672678,6.40742465 12.0478868,5.72510065 Z M23.8997788,9.25165765 C23.3225128,9.25165765 22.7689238,9.48092665 22.3609098,9.88913765 C21.9511208,10.2963786 21.7206488,10.8501346 21.7206488,11.4280066 C21.7206488,12.0058786 21.9511158,12.5596506 22.3609098,12.9668756 C22.7689588,13.3750676 23.3225128,13.6043556 23.8997788,13.6043556 C24.4770438,13.6043556 25.0304368,13.3750876 25.4386478,12.9668756 C25.8468388,12.5586246 26.0759248,12.0052726 26.0759248,11.4280066 C26.0759248,10.8507416 25.8468588,10.2971516 25.4386478,9.88913765 C25.0303958,9.48094665 24.4770438,9.25165765 23.8997788,9.25165765 Z M14.2455208,7.34584265 C13.6682548,7.34584265 13.1146658,7.57510565 12.7066508,7.98311965 C12.2968678,8.39051265 12.0665928,8.94447065 12.0665928,9.52214065 C12.0665928,10.0998106 12.2968578,10.6537846 12.7066508,11.0610096 C13.1147008,11.4692006 13.6682548,11.6984896 14.2455208,11.6984896 C14.8227858,11.6984896 15.3763758,11.4692216 15.7843898,11.0610096 C16.1925808,10.6529606 16.4218688,10.0994066 16.4218688,9.52214065 C16.4218688,8.94487565 16.1926008,8.39133165 15.7843898,7.98311965 C15.3763398,7.57513065 14.8227858,7.34584265 14.2455208,7.34584265 Z" transform="translate(17.636290, 17.636290) rotate(-45.000000) translate(-17.636290, -17.636290) "></path>
        </g>
    </g>
</svg>