<?xml version="1.0" encoding="UTF-8"?>
<svg width="35px" height="35px" viewBox="0 0 35 35" version="1.1" xmlns="http://www.w3.org/2000/svg" xmlns:xlink="http://www.w3.org/1999/xlink">
    <title>icon_dentist</title>
    <g id="icon_dentist" stroke="none" stroke-width="1" fill="none" fill-rule="evenodd">
        <g transform="translate(7.000000, 5.000000)" fill="#D8D8D8" fill-rule="nonzero">
            <path d="M15.1662455,0.0942447505 C11.524192,1.01559375 9.73418002,1.01559375 6.13603822,0.0942447505 C2.84499392,-0.476039249 1.39710262,1.67398475 0.56300852,3.03422275 C-1.58724188,7.42231975 3.15214822,11.1409238 2.62537892,13.5103348 C-0.49035968,27.0701138 9.25132242,28.2107948 9.38311412,19.1271058 C9.38311412,16.4065718 11.9188856,16.6258458 11.9188856,19.1271058 C12.0506943,28.2105108 21.792473,27.0698298 18.720362,13.5103348 C18.1937915,11.1404118 22.9331532,7.42254675 20.7829596,3.03422275 C19.9056356,1.67398475 18.5014287,-0.476266249 15.1662455,0.0942447505 Z M14.6831606,20.5753948 C14.1128772,11.1846648 7.18900882,11.0966138 6.61866872,20.5753948 C6.39920702,23.4714048 3.85422332,20.3119988 4.68769242,16.5381358 C5.12661572,14.3878858 6.22391832,13.4228518 4.99502852,11.4479638 C1.04565042,5.30430975 2.05505012,1.67398475 7.89103842,2.94702475 C9.38312552,3.29785175 11.9628086,3.25391175 13.3232743,2.94702475 C19.1152941,1.67466575 20.3002837,5.30510575 16.3511328,11.4479638 C15.0785471,13.4231358 16.219324,14.3883968 16.6582416,16.5381358 C17.4480604,20.3120378 15.1223338,23.3839218 14.6831606,20.5753948 Z"></path>
        </g>
    </g>
</svg>