<?xml version="1.0" encoding="UTF-8"?>
<svg width="19px" height="19px" viewBox="0 0 19 19" version="1.1" xmlns="http://www.w3.org/2000/svg" xmlns:xlink="http://www.w3.org/1999/xlink">
    <title>Group 3</title>
    <defs>
        <polygon id="path-1" points="0 0 19 0 19 19 0 19"></polygon>
    </defs>
    <g id="Final" stroke="none" stroke-width="1" fill="none" fill-rule="evenodd">
        <g id="4.1.Here-a-can-discount-my-card" transform="translate(-320.000000, -37.000000)">
            <g id="Group-3" transform="translate(320.000000, 37.000000)">
                <mask id="mask-2" fill="white">
                    <use xlink:href="#path-1"></use>
                </mask>
                <g id="Clip-2"></g>
                <path d="M17.6428571,19 C17.2954286,19 16.948,18.867 16.6833571,18.6023571 L9.5,11.419 L2.31664286,18.6023571 C1.786,19.133 0.928285714,19.133 0.397642857,18.6023571 C-0.133,18.0717143 -0.133,17.214 0.397642857,16.6833571 L7.581,9.5 L0.397642857,2.31664286 C-0.133,1.786 -0.133,0.926928571 0.397642857,0.396285714 C0.928285714,-0.133 1.786,-0.133 2.31664286,0.396285714 L9.5,7.57964286 L16.6833571,0.396285714 C17.214,-0.133 18.0717143,-0.133 18.6023571,0.396285714 C19.133,0.926928571 19.133,1.786 18.6023571,2.31664286 L11.419,9.5 L18.6023571,16.6833571 C19.133,17.214 19.133,18.0717143 18.6023571,18.6023571 C18.3377143,18.867 17.9902857,19 17.6428571,19" id="Fill-1" fill="#CECBDA" mask="url(#mask-2)"></path>
            </g>
        </g>
    </g>
</svg>