<?xml version="1.0" encoding="UTF-8"?>
<svg width="35px" height="35px" viewBox="0 0 35 35" version="1.1" xmlns="http://www.w3.org/2000/svg" xmlns:xlink="http://www.w3.org/1999/xlink">
    <title>icon_travel</title>
    <g id="icon_travel" stroke="none" stroke-width="1" fill="none" fill-rule="evenodd">
        <g transform="translate(3.000000, 6.000000)" fill="#D8D8D8" fill-rule="nonzero">
            <path d="M10.2656072,15.5553284 L26.8992548,6.4088506 C27.7150867,5.97741297 28.4402706,5.243969 28.7575386,4.38109373 C29.5280465,2.52591192 28.3949466,0.627586342 26.3100428,0.32558 C25.4035629,0.196148711 24.406435,0.368723763 23.545279,0.843305158 L19.0128794,3.34564342 L12.66752,0.109861184 C12.304928,-0.0627138681 11.8970121,-0.019570105 11.5797441,0.153004947 L7.50058445,2.39648063 C7.0020205,2.65534321 6.82072451,3.25935589 7.09266849,3.77708105 C7.18331648,3.9496561 7.31928847,4.07908739 7.50058445,4.16537492 L12.712585,6.84028823 L8.1348614,9.34262649 L4.32764574,7.87573855 C4.01037776,7.74630726 3.69310979,7.78945102 3.42116582,7.91888231 L0.520430069,9.51520155 C0.021866113,9.77406413 -0.159429871,10.4212206 0.157838101,10.895802 C0.293810089,11.068377 0.429782077,11.2409521 0.656402057,11.2840958 L9.3130263,15.5984721 C9.58497028,15.7710472 9.94756225,15.7279034 10.2648302,15.5553284 L10.2656072,15.5553284 Z M4.01089575,9.90374195 L7.81811142,11.3706299 C8.09005539,11.5000612 8.45264736,11.5000612 8.76991534,11.3274861 L15.4322838,7.66026627 C15.6135797,7.57397874 15.7495517,7.44454745 15.8401997,7.2719724 C16.1121437,6.79739101 15.9308477,6.19337832 15.4322838,5.93451574 L10.1747002,3.21645867 L12.168956,2.09472082 L18.5598985,5.37364682 C18.8771664,5.54622187 19.2397584,5.54622187 19.6023504,5.37364682 L24.5879899,2.65558974 C25.1772019,2.31043964 26.3556258,2.13786459 26.8088658,2.8281648 C27.2621057,3.60475253 26.4462738,4.38134027 25.8117378,4.76963414 L9.67639526,13.5709618 L3.19532282,10.3351796 L4.01089575,9.90374195 Z" id="Shape"></path>
            <path d="M27.9446093,21.3333333 L4.68039065,21.3333333 C4.0838655,21.3333333 3.625,21.8586957 3.625,22.5416667 C3.625,23.2246377 4.0838655,23.75 4.68039065,23.75 L27.9446093,23.75 C28.5411345,23.75 29,23.2246377 29,22.5416667 C29,21.8586957 28.4952479,21.3333333 27.9446093,21.3333333 Z" id="Path"></path>
        </g>
    </g>
</svg>