<?xml version="1.0" encoding="UTF-8"?>
<svg width="20px" height="20px" viewBox="0 0 20 20" version="1.1" xmlns="http://www.w3.org/2000/svg" xmlns:xlink="http://www.w3.org/1999/xlink">
    <title>Group 3</title>
    <defs>
        <polygon id="path-1" points="0 0 20 0 20 19.9995 0 19.9995"></polygon>
    </defs>
    <g id="Page-3" stroke="none" stroke-width="1" fill="none" fill-rule="evenodd">
        <g id="6.0.Insurance-data" transform="translate(-312.000000, -417.000000)">
            <g id="Dropdown" transform="translate(16.000000, 382.000000)">
                <g id="Group-3" transform="translate(296.000000, 35.000000)">
                    <mask id="mask-2" fill="white">
                        <use xlink:href="#path-1"></use>
                    </mask>
                    <g id="Clip-2"></g>
                    <path d="M15,9.9995 L5,9.9995 C4.448,9.9995 4,9.5515 4,8.9995 C4,8.4475 4.448,7.9995 5,7.9995 L15,7.9995 C15.553,7.9995 16,8.4475 16,8.9995 C16,9.5515 15.553,9.9995 15,9.9995 L15,9.9995 Z M3,3.9995 C2.449,3.9995 2,4.4485 2,4.9995 L2,16.9995 C2,17.5515 2.449,17.9995 3,17.9995 L17,17.9995 C17.552,17.9995 18,17.5515 18,16.9995 L18,4.9995 C18,4.4485 17.552,3.9995 17,3.9995 L15,3.9995 L15,4.9995 C15,5.5515 14.553,5.9995 14,5.9995 C13.447,5.9995 13,5.5515 13,4.9995 L13,3.9995 L7,3.9995 L7,4.9995 C7,5.5515 6.552,5.9995 6,5.9995 C5.448,5.9995 5,5.5515 5,4.9995 L5,3.9995 L3,3.9995 Z M17,19.9995 L3,19.9995 C1.346,19.9995 0,18.6545 0,16.9995 L0,4.9995 C0,3.3455 1.346,1.9995 3,1.9995 L5,1.9995 L5,0.9995 C5,0.4475 5.448,-0.0005 6,-0.0005 C6.552,-0.0005 7,0.4475 7,0.9995 L7,1.9995 L13,1.9995 L13,0.9995 C13,0.4475 13.447,-0.0005 14,-0.0005 C14.553,-0.0005 15,0.4475 15,0.9995 L15,1.9995 L17,1.9995 C18.654,1.9995 20,3.3455 20,4.9995 L20,16.9995 C20,18.6545 18.654,19.9995 17,19.9995 L17,19.9995 Z" id="Fill-1" fill="#660099" mask="url(#mask-2)"></path>
                </g>
            </g>
        </g>
    </g>
</svg>