<?xml version="1.0" encoding="UTF-8"?>
<svg width="21px" height="22px" viewBox="0 0 21 22" version="1.1" xmlns="http://www.w3.org/2000/svg" xmlns:xlink="http://www.w3.org/1999/xlink">
    <title>Icon_alert</title>
    <defs>
        <polygon id="path-1" points="0 0 21 0 21 21.4893 0 21.4893"></polygon>
    </defs>
    <g id="Page-3" stroke="none" stroke-width="1" fill="none" fill-rule="evenodd">
        <g id="7.1.Not-approved" transform="translate(-137.000000, -177.000000)">
            <g id="Group-3" transform="translate(137.000000, 177.000000)">
                <mask id="mask-2" fill="white">
                    <use xlink:href="#path-1"></use>
                </mask>
                <g id="Clip-2"></g>
                <path d="M11.8125,6.6357375 C11.8125,5.9112375 11.2245,5.3232375 10.5,5.3232375 C9.7755,5.3232375 9.1875,5.9112375 9.1875,6.6357375 L9.1875,10.5732375 C9.1875,11.2977375 9.7755,11.8857375 10.5,11.8857375 C11.2245,11.8857375 11.8125,11.2977375 11.8125,10.5732375 L11.8125,6.6357375 Z M11.8125,15.8232375 C11.8125,16.5477375 11.2245,17.1357375 10.5,17.1357375 C9.7755,17.1357375 9.1875,16.5477375 9.1875,15.8232375 C9.1875,15.0987375 9.7755,14.5107375 10.5,14.5107375 C11.2245,14.5107375 11.8125,15.0987375 11.8125,15.8232375 L11.8125,15.8232375 Z M10.5,-0.0002625 C7.7634375,2.4488625 4.165875,3.9556125 0.217875,4.009425 C0.0748125,4.8638625 0,5.7406125 0,6.6357375 C0,13.49355 4.3824375,19.3276125 10.5,21.4893 C16.6175625,19.3276125 21,13.49355 21,6.6357375 C21,5.7406125 20.9251875,4.8638625 20.782125,4.009425 C16.834125,3.9556125 13.2365625,2.4488625 10.5,-0.0002625 L10.5,-0.0002625 Z" id="Fill-1" fill="#F13876" mask="url(#mask-2)"></path>
            </g>
        </g>
    </g>
</svg>