<svg width="527" height="155" viewBox="0 0 527 155" xmlns="http://www.w3.org/2000/svg">
    <g fill="#FFF" fill-rule="nonzero">
        <path d="M192.123 145.015v-30.894c.696-2.506 2.147-4.581 4.352-6.226 2.205-1.645 5.01-2.467 8.414-2.467 2.32 0 4.642.392 6.963 1.175l2.321-15.154c-2.708-.861-5.106-1.292-7.195-1.292-3.327 0-6.287.862-8.878 2.585-2.592 1.722-4.662 4.19-6.21 7.4h-1.508l-1.74-8.575h-12.767v53.448c0 4.541 3.637 8.223 8.124 8.223s8.124-3.682 8.124-8.223zM249.954 155c5.184 0 10.039-.724 14.565-2.173s8.105-3.191 10.735-5.228l-5.57-10.337c-1.548 1.097-3.772 2.173-6.674 3.23-2.901 1.058-6.17 1.586-9.806 1.586-6.035 0-10.387-1.272-13.056-3.817-2.67-2.545-4.198-6.48-4.585-11.806h40.62c.464-2.114.793-4.15.986-6.108.193-1.958.29-3.76.29-5.404 0-4.777-.754-8.79-2.263-12.04s-3.5-5.835-5.977-7.753c-2.476-1.919-5.3-3.29-8.472-4.112a38.238 38.238 0 0 0-9.632-1.233c-9.98 0-17.718 2.76-23.211 8.281-5.493 5.521-8.24 13.646-8.24 24.375 0 10.102 2.437 18.051 7.311 23.846 4.875 5.795 12.534 8.693 22.98 8.693zm12.418-38.295h-26.228c.387-4.072 1.74-7.42 4.062-10.043 2.32-2.624 5.88-3.936 10.677-3.936 4.255 0 7.311 1.253 9.168 3.76 1.857 2.505 2.63 5.912 2.321 10.22zm53.77 37.12 12.65-33.83c.232-1.332.503-2.683.812-4.053.31-1.37.58-2.722.812-4.053h2.09l1.624 7.988a1110.34 1110.34 0 0 0 6.731 16.974 1110.34 1110.34 0 0 1 6.731 16.974h11.722l20.774-62.258h-14.855a821.17 821.17 0 0 1-4.294 15.564 821.172 821.172 0 0 0-4.294 15.565l-1.741 10.455h-1.74l-2.322-10.337a933.42 933.42 0 0 1-6.15-15.624 933.401 933.401 0 0 0-6.152-15.623h-11.953l-11.026 30.307-2.32 11.512h-1.742l-1.624-11.395-9.749-30.424h-17.64l21.354 62.258h12.302zm81.042-67.192c3.327 0 5.958-.822 7.892-2.467 1.934-1.644 2.901-3.602 2.901-5.873 0-2.428-.967-4.503-2.901-6.226-1.934-1.723-4.565-2.584-7.892-2.584-3.25 0-5.764.842-7.543 2.525-1.78 1.684-2.67 3.779-2.67 6.285 0 2.271.89 4.229 2.67 5.873 1.78 1.645 4.294 2.467 7.543 2.467zm8.472 58.382V91.567h-16.248v53.448c0 4.541 3.638 8.223 8.124 8.223 4.487 0 8.124-3.682 8.124-8.223zm34.969 0v-30.894c.696-2.506 2.147-4.581 4.352-6.226 2.205-1.645 5.01-2.467 8.414-2.467 2.32 0 4.642.392 6.963 1.175l2.321-15.154c-2.708-.861-5.106-1.292-7.195-1.292-3.327 0-6.286.862-8.878 2.585-2.592 1.722-4.662 4.19-6.21 7.4h-1.508l-1.74-8.575h-12.767v53.448c0 4.541 3.637 8.223 8.124 8.223s8.124-3.682 8.124-8.223zM498.456 155c5.184 0 10.04-.724 14.565-2.173 4.526-1.449 8.105-3.191 10.735-5.228l-5.57-10.337c-1.548 1.097-3.772 2.173-6.674 3.23-2.9 1.058-6.17 1.586-9.806 1.586-6.035 0-10.387-1.272-13.056-3.817-2.67-2.545-4.198-6.48-4.584-11.806h40.619c.464-2.114.793-4.15.986-6.108.194-1.958.29-3.76.29-5.404 0-4.777-.754-8.79-2.263-12.04-1.508-3.25-3.5-5.835-5.977-7.753-2.475-1.919-5.3-3.29-8.472-4.112a38.238 38.238 0 0 0-9.632-1.233c-9.98 0-17.718 2.76-23.211 8.281-5.493 5.521-8.24 13.646-8.24 24.375 0 10.102 2.437 18.051 7.312 23.846 4.874 5.795 12.533 8.693 22.978 8.693zm12.418-38.295h-26.228c.387-4.072 1.74-7.42 4.062-10.043 2.32-2.624 5.88-3.936 10.677-3.936 4.255 0 7.311 1.253 9.168 3.76 1.857 2.505 2.63 5.912 2.321 10.22zM117.467 67.868c-.437-27.037-22.395-48.898-49.32-48.898-26.926 0-48.884 21.861-49.32 48.898l-.007.821v76.826c0 5.238-4.214 9.485-9.41 9.485-5.117 0-9.28-4.117-9.407-9.244l-.003-.24v-79.1c0-.33.021-.661.062-1.018l.028-.218.058-1.04C2.463 28.615 31.614.573 67.06.01L68.146 0c37.578 0 68.147 30.813 68.147 68.69 0 17.492-6.51 34.12-18.341 46.882l-.401.429-.843.893-13.642-13.068.843-.894c8.621-9.143 13.424-21.085 13.561-33.686l.003-.557-.006-.82z"/>
        <path d="M68.387 34.741c-8.987 0-17.443 3.523-23.796 9.911-6.35 6.386-9.85 14.88-9.85 23.908 0 8.17 2.875 15.925 8.17 22.079.23.305.49.612.773.896l.506.511.345.366.914.92.011-.012 58.548 58.876a9.47 9.47 0 0 0 6.735 2.804c2.51 0 4.925-.986 6.734-2.804 3.709-3.73 3.709-9.77 0-13.5l-59.63-59.963c-5.491-5.745-5.413-14.925.212-20.58a14.462 14.462 0 0 1 10.328-4.305 14.46 14.46 0 0 1 10.33 4.304 14.658 14.658 0 0 1 4.286 10.408c0 3.935-1.522 7.628-4.287 10.409l-.862.867 13.447 13.522.884-.89c13.112-13.185 13.112-34.63 0-47.816-6.353-6.389-14.81-9.91-23.798-9.91z"/>
    </g>
</svg>
