<?xml version="1.0" encoding="UTF-8"?>
<svg width="35px" height="35px" viewBox="0 0 35 35" version="1.1" xmlns="http://www.w3.org/2000/svg" xmlns:xlink="http://www.w3.org/1999/xlink">
    <title>Artboard</title>
    <g id="Artboard" stroke="none" stroke-width="1" fill="none" fill-rule="evenodd">
        <g id="icon_electrical-appliances" transform="translate(7.000000, 5.000000)" fill="#D8D8D8" fill-rule="nonzero">
            <path d="M16.4999117,24 C17.4944688,24 18.4484448,23.6050166 19.1515709,22.9016486 C19.8549658,22.1985216 20.2499222,21.2445456 20.2499222,20.2499894 L20.2499222,5.24994816 C20.2499222,3.85755552 19.696943,2.52221664 18.7123517,1.53757152 C17.7277594,0.55292544 16.3923667,0 14.999975,0 L5.24994816,0 C3.85755552,0 2.52221664,0.5529792 1.53757152,1.53757152 C0.55292544,2.52216288 0,3.85755552 0,5.24994816 L0,20.2499894 C0,21.2445456 0.39498336,22.1985216 1.09835136,22.9016486 C1.8014784,23.6050435 2.7554544,24 3.75001056,24 L16.4999117,24 Z M2.99987424,5.24994816 C2.99987424,4.65328128 3.23686848,4.08094848 3.65879136,3.65900544 C4.08072096,3.23707584 4.65307968,3.00008832 5.24973312,3.00008832 L14.999761,3.00008832 C15.5964278,3.00008832 16.1687597,3.23708256 16.5907027,3.65900544 C17.0126323,4.08093504 17.2496198,4.65329376 17.2496198,5.24994816 L17.2496198,12.3749674 L13.8747437,12.3749674 L13.8747437,7.56370368 C13.8823296,7.18179936 13.7481408,6.81062208 13.4980685,6.52180416 C13.2482582,6.23301984 12.900096,6.04703904 12.5210573,5.99968896 C12.0986054,5.95835904 11.6782426,6.09804576 11.3643802,6.38395104 C11.0507453,6.66985536 10.8726058,7.07529216 10.8747024,7.4998464 L10.8747024,12.3749674 L2.99968032,12.3749674 L2.99987424,5.24994816 Z M2.99987424,20.2499894 L2.99987424,15.3749088 L10.8748963,15.3749088 L10.8748963,16.8112301 C10.8673104,17.1931354 11.0014992,17.5643126 11.2515715,17.8531306 C11.5016438,18.1419475 11.849544,18.3278947 12.2285837,18.3749846 C12.6512966,18.4163146 13.0713984,18.2768947 13.3852608,17.9909837 C13.6988957,17.7050784 13.8770342,17.2996416 13.8749386,16.8750874 L13.8749386,15.3749088 L17.2498138,15.3749088 L17.2498138,20.2500298 C17.2498138,20.4490954 17.1708154,20.639783 17.030351,20.7805152 C16.8896189,20.9209872 16.6989302,20.9999779 16.4998742,20.9999779 L3.74983008,20.9999779 C3.33548736,20.9999779 2.99987424,20.6643725 2.99987424,20.2500432 L2.99987424,20.2499894 Z"></path>
        </g>
    </g>
</svg>