<?xml version="1.0" encoding="UTF-8"?>
<svg width="35px" height="35px" viewBox="0 0 35 35" version="1.1" xmlns="http://www.w3.org/2000/svg" xmlns:xlink="http://www.w3.org/1999/xlink">
    <title>icon_health</title>
    <g id="icon_health" stroke="none" stroke-width="1" fill="none" fill-rule="evenodd">
        <g transform="translate(4.000000, 5.000000)" fill="#D8D8D8" fill-rule="nonzero">
            <path d="M17.6410167,5.74982869 C17.4194063,5.75612419 17.2050706,5.82973747 17.0266178,5.96097236 C16.8481651,6.0924552 16.7143286,6.27527034 16.6427985,6.48472175 L14.0055464,14.2158706 L11.8919831,11.1172123 L11.8919831,11.1169702 C11.6897698,10.820593 11.3537138,10.6433444 10.9946296,10.6433444 L7.65641512,10.6433444 C7.36618579,10.6399544 7.08662638,10.7527905 6.88028536,10.9566753 C6.67395054,11.1603184 6.5578104,11.4382914 6.5578104,11.7281165 C6.5578104,12.0179416 6.67395054,12.2956915 6.88028536,12.4995577 C7.08662018,12.7034426 7.36617958,12.8162794 7.65641512,12.8128887 L10.4204774,12.8128887 L13.4352424,17.2324504 C13.5875077,17.4554647 13.8178513,17.6138194 14.0806517,17.6762971 C14.3437252,17.7390105 14.6206156,17.7014797 14.8572781,17.5712088 C15.094164,17.440693 15.273585,17.2268838 15.3608747,16.9714249 L17.9981269,9.24027593 L20.1116902,12.3389344 C20.3139035,12.6353116 20.6499595,12.8128019 21.0090437,12.8128019 L24.3472582,12.8128019 C24.6374875,12.8161919 24.9170469,12.7033558 25.123388,12.4994709 C25.3299649,12.2955861 25.446105,12.0178548 25.446105,11.7280297 C25.446105,11.4382046 25.3299649,11.1602069 25.123388,10.9565885 C24.9170531,10.7527036 24.6374937,10.6398668 24.3472582,10.6432575 L21.5831959,10.6432575 L18.5684308,6.22369592 C18.3601532,5.9183552 18.0107645,5.73989782 17.6410353,5.74982831 L17.6410167,5.74982869 Z" id="Path"></path>
            <path d="M13.2735932,25 C12.9611786,25 12.6499051,24.8881956 12.4022537,24.6634064 L4.00623785,17.0438674 C2.12868731,15.3430505 0.838980773,13.1882076 0.279324408,10.8138133 C-0.0951908417,9.22808777 -0.00223014478,8.17314819 0.048819723,7.81997363 C0.477057303,3.2865425 3.75632369,0 7.85767435,0 C9.93907324,0 11.8737794,0.860288781 13.2948656,2.36561615 C14.7472607,0.877035557 16.7471203,0.000780280745 18.833786,0.000780280745 C22.9352343,0.000780280745 26.2144617,3.28800553 26.6434209,7.82153419 C26.693713,8.17319696 26.78591,9.23237931 26.4121555,10.8146911 C25.8524699,13.187915 24.5635729,15.3428554 22.6844618,17.0455255 L14.1363887,24.6708191 C13.890649,24.8906534 13.5824186,25 13.2734274,25 L13.2735932,25 Z M7.85776213,2.59308749 C5.11653834,2.59308749 2.91624418,4.90691251 2.62705262,8.09504209 C2.62438562,8.12590318 2.62019464,8.15562017 2.61524209,8.18648125 C2.61028907,8.21619921 2.49903879,8.93590189 2.80231441,10.2195027 C3.2419831,12.0806674 4.25997637,13.77651 5.74738655,15.1240549 L13.2804119,21.9598994 L20.9502791,15.1180077 C22.4300815,13.77651 23.4492256,12.0799846 23.8877434,10.2191126 C24.1898779,8.93974477 24.0797706,8.213596 24.0748157,8.18267738 C24.0706247,8.15372116 24.0664339,8.12476592 24.0637669,8.09466756 C23.7745949,4.90614783 21.5743788,2.59271295 18.8330575,2.59271295 C17.0126625,2.59271295 15.3526152,3.55282891 14.391797,5.16139717 C14.1578688,5.55305909 13.7345763,5.79309295 13.2789216,5.79309295 L13.2728256,5.79309295 C12.8144887,5.79042595 12.3911962,5.54659252 12.1599503,5.15149736 C11.2238377,3.54977606 9.61564981,2.59315187 7.85777481,2.59315187 L7.85776213,2.59308749 Z" id="Shape"></path>
        </g>
    </g>
</svg>